<svg width="180" height="180" viewBox="0 0 180 180" fill="none" xmlns="http://www.w3.org/2000/svg">
<g clip-path="url(#clip0_4_4330)">
<path d="M87.06 0.0500031C85.05 2.05 82.67 3.86 83.04 7.21C83.47 10.99 85.36 11.38 87 13.32C43.23 15.08 9.37 53.29 13.69 97.31C17.36 134.7 47.56 163.8 84.76 166.28C127.98 169.16 164.65 135.88 166.52 92.48C167.85 94.28 169.3 96.06 171.15 96.45C176.14 97.5 176.82 95.18 179.74 93.05C178.48 126.92 158.7 156.57 128.24 171.33C104.57 182.8 76.22 182.83 52.46 171.74C13.75 153.68 -6.87 112.06 2.07 70.62C11.01 29.18 45.97 1.48 87.06 0.0500031Z" fill="#E39C37"/>
<path d="M179.75 93.05C176.82 95.18 176.14 97.5 171.16 96.45C169.31 96.06 167.87 94.28 166.53 92.48C166.63 90.12 166.44 87.76 166.3 85.41C163.76 43.77 128.6 11.97 87.01 13.31C85.37 11.37 83.47 10.99 83.05 7.2C82.67 3.85 85.06 2.04 87.07 0.0399982C139.24 -1.77 181.91 41.43 179.76 93.04L179.75 93.05Z" fill="#4AA36A"/>
<path d="M86.11 30.91C121.55 28.73 150.35 57.53 148.95 92.24C147.68 123.9 121.56 149.04 89.81 148.99C58.07 148.94 31.96 123.78 30.81 91.96C29.67 60.43 53.99 32.89 86.11 30.91ZM96.64 136.79C121.95 133.13 139.14 110.69 137.13 85.84C135.16 61.43 114.45 42.42 89.83 42.44C65.19 42.47 44.39 61.64 42.59 86.33C40.81 110.78 58.03 133.04 82.8 136.75C87.26 137.42 91.83 137.49 96.64 136.79Z" fill="#4AA36A"/>
<path d="M85.99 70.36C97.32 68.16 107.43 75.41 109.55 86.23C111.62 96.81 104.52 107.38 93.78 109.47C83.19 111.53 72.75 104.85 70.47 94.37C68.19 83.89 74.53 72.58 85.99 70.35V70.36Z" fill="#E39C37"/>
</g>
<defs>
<clipPath id="clip0_4_4330">
<rect width="179.83" height="180" fill="white"/>
</clipPath>
</defs>
</svg>
