<svg width="393" height="852" viewBox="0 0 393 852" fill="none" xmlns="http://www.w3.org/2000/svg">
<g opacity="0.1" clip-path="url(#clip0_15_1711)">
<path d="M372.846 894.676C371.954 895.642 371.037 896.558 370.1 897.429C369.368 876.336 366.395 855.469 361.362 835.774C355.858 814.244 347.857 794.246 337.744 777.011C328.16 760.678 316.723 746.81 304.165 736.141C291.475 725.361 277.43 717.378 263.005 714.251C248.966 711.208 232.862 713.193 221.649 727.811C212.864 739.263 207.311 759.193 210.71 776.615C214.554 796.322 228.194 803.509 239.79 809.121C246.303 812.272 252.792 815.435 258.852 820.323C265.087 825.35 270.87 831.723 275.961 839.157C286.437 854.458 294.005 874.147 297.271 895.721C297.886 899.776 298.357 903.876 298.683 908H295.801C294.921 897.392 293.05 886.977 290.187 877.172C284.539 857.822 275.028 841.103 263.421 829.488C257.563 823.626 251.193 819.344 244.551 816.009C238.109 812.774 231.509 810.046 225.35 805.653C219.471 801.459 213.958 795.444 210.56 786.847C207.328 778.67 206.338 769.023 207.149 759.63C207.964 750.17 210.581 741.118 214.308 733.485C218.345 725.215 223.757 719.114 229.948 715.041C244.146 705.698 260.59 707.709 275.199 713.6C289.483 719.359 303.035 728.881 315.278 741.457C327.407 753.915 338.184 769.453 346.963 787.279C356.399 806.438 363.47 828.316 367.85 851.305C370.546 865.455 372.223 880.01 372.846 894.676Z" fill="#EFF669"/>
<path d="M393 677.138V687.891C388.052 670.049 381.856 653.018 374.526 637.175C364.2 614.854 351.619 594.954 337.17 578.755C322.243 562.022 305.349 549.548 287.412 542.371C268.95 534.983 249.583 532.983 230.643 536.693C211.815 540.383 193.409 549.877 177.294 565.239C162.501 579.341 149.888 598.42 140.159 620.445C130.417 642.501 123.614 667.677 120.564 693.861C119.047 706.889 118.477 720.153 118.951 733.37C119.485 748.22 121.522 762.675 124.204 776.946C129.681 806.092 137.531 835.489 135.688 866.377C134.806 881.14 131.748 896.114 126.065 908H122.552C132.371 889.721 134.484 863.509 132.364 840.785C129.332 808.29 119.549 778.237 116.803 745.632C114.578 719.212 116.616 692.095 122.096 666.85C127.613 641.438 136.485 617.759 148.068 597.617C159.991 576.882 174.699 560.331 191.201 549.013C208.608 537.075 227.71 531.022 246.774 530.536C265.937 530.046 285.128 535.104 303.055 545.423C320.215 555.3 336.053 570.242 349.821 588.658C363.383 606.796 374.984 628.324 384.233 651.909C387.437 660.084 390.364 668.508 393 677.138Z" fill="#EFF669"/>
<path d="M393 786.429V801.692C391.642 793.968 390.04 786.344 388.209 778.845C382.906 757.131 375.683 736.547 366.841 717.696C358.066 698.988 347.698 682.033 336.003 667.483C324.097 652.672 310.833 640.439 296.62 631.489C279.375 620.632 260.275 614.44 241.648 619.142C227.249 622.777 213.693 633.565 203.029 648.627C192.273 663.82 184.129 683.488 180.495 705.207C175.735 733.67 178.979 763.406 183.126 791.544C187.07 818.31 191.932 844.898 192.575 872.473C192.852 884.382 192.337 896.424 190.658 908H187.804C190.665 889.033 190.11 868.862 188.318 849.761C185.595 820.737 179.518 792.719 176.722 763.706C175.302 748.961 174.75 733.968 175.901 719.132C176.83 707.174 178.981 695.512 182.292 684.574C188.534 663.944 198.693 646.086 211.054 633.413C224.366 619.766 239.967 612.782 256.011 613.205C274.399 613.691 292.434 622.555 308.724 635.155C322.432 645.761 335.108 659.448 346.333 675.433C357.542 691.395 367.358 709.647 375.459 729.491C382.74 747.33 388.673 766.48 393 786.429Z" fill="#EFF669"/>
<path d="M23.6056 822.628C22.4167 844.044 16.3608 863.852 11.5191 883.758C9.76509 890.966 8.12247 898.484 6.93243 906.145C5.99741 905.816 5.07272 905.445 4.15952 905.032C5.68497 895.331 7.918 885.821 10.2177 876.677C15.0846 857.327 20.8453 837.39 20.9578 816.301C21.0406 800.853 17.5865 784.263 9.9707 773.713C8.08571 771.1 6.05714 769.002 3.74599 767.373C0.921381 765.385 -2.13526 764.362 -5.22752 763.948C-12.2735 763.003 -19.3299 765.217 -26.346 765.845C-27.5338 765.952 -28.7583 765.992 -30 765.954V761.543C-26.3196 761.618 -22.6312 761.026 -18.9233 760.442C-11.9255 759.34 -4.6325 758.31 2.1677 761.757C7.25407 764.336 11.5961 769.192 14.9927 775.47C22.033 788.484 24.5234 806.116 23.6056 822.628Z" fill="#EFF669"/>
<path d="M97.5773 865.531C97.1626 880.393 94.9927 894.941 90.4313 908H87.1691C88.1259 905.45 88.9886 902.831 89.7582 900.173C94.8135 882.707 95.4396 863.299 94.2886 844.518C91.7305 802.776 80.2505 761.223 86.2237 718.959C88.8599 700.31 94.8446 682.54 95.5246 663.293C95.8336 654.531 94.8112 645.633 91.881 637.993C89.2539 631.142 85.4012 625.488 81.0052 621.277C58.2487 599.476 30.6114 616.367 5.89633 616.351C-6.12693 616.344 -18.6212 612.637 -27.9933 600.453C-28.6825 599.558 -29.3521 598.621 -30 597.648V591.365C-26.2944 597.841 -21.4825 602.966 -16.4295 606.137C-4.2833 613.759 9.34812 612.589 22.1157 610.272C36.0561 607.74 50.2125 603.678 64.2459 607.181C74.599 609.763 84.9016 617.19 91.6133 629.739C95.0766 636.215 97.2579 643.986 98.0769 652.231C98.9959 661.48 98.1045 670.948 96.6388 679.952C95.0869 689.487 92.8838 698.735 91.0459 708.141C89.1322 717.934 87.8077 727.867 87.5079 738.095C86.2421 781.29 98.7822 822.343 97.5773 865.531Z" fill="#EFF669"/>
<path d="M50.139 854.643C45.5236 871.403 41.1241 889.612 39.7549 908H36.8326C38.3788 886.283 44.0889 865.062 49.6428 845.233C57.0552 818.772 65.0925 790.958 63.0525 761.508C62.2231 749.545 59.8143 737.628 55.2908 727.676C50.4778 717.084 43.4123 709.989 35.3221 706.455C26.4497 702.58 17.1201 702.253 7.98118 701.12C-0.973944 700.009 -9.74069 697.859 -18.0215 692.329C-22.2475 689.507 -26.2645 685.994 -30 681.888V676.453C-23.85 683.69 -16.8418 689.218 -9.36507 692.481C8.11099 700.107 27.7167 694.05 44.2416 707.137C59.2159 718.994 65.9081 744.598 66.2481 769.215C66.6651 799.436 57.6295 827.431 50.139 854.643Z" fill="#EFF669"/>
<path d="M393 547.761V556.419C380.805 521.987 360.926 494.142 338.001 476.725C307.29 453.391 271.856 447.626 238.06 453.743C202.408 460.194 168.346 479.349 136.037 502.529C106.546 523.688 75.9658 548.996 42.2796 544.998C28.4782 543.359 14.6492 536.831 3.56325 523.922C-7.69958 510.809 -14.8616 491.638 -17.3313 470.494C-19.8618 448.84 -17.5943 425.952 -11.6338 405.994C-5.57108 385.699 4.46841 368.488 15.9931 354.954C42.9389 323.311 76.8871 312.471 109.716 304.084C144.057 295.313 179.92 288.019 209.963 259.151C236.089 234.046 256.067 195.772 268.7 153.146C282.892 105.262 287.995 52.2481 287.543 0H290.413C290.51 11.225 290.358 22.4535 289.909 33.6628C287.837 85.3181 279.582 137.061 262.134 181.853C246.456 222.103 223.837 256.003 195.8 275.794C163.412 298.656 127.297 302.918 92.6792 313.129C60.8572 322.516 27.7901 338.462 5.18289 375.831C-5.00018 392.66 -12.1576 413.113 -14.5699 435.805C-16.8902 457.627 -14.8444 481.081 -7.01038 499.989C9.1401 538.974 43.38 546.631 70.8485 537.529C88.1235 531.804 104.346 520.696 120.24 509.189C136.298 497.564 152.318 485.94 168.954 476.314C201.583 457.433 236.359 445.054 271.449 447.385C303.876 449.539 336.426 464.081 362.216 494.847C374.47 509.464 385.057 527.453 393 547.761Z" fill="#EFF669"/>
<path d="M142.701 74.8206C135.478 94.4657 124.278 110.349 111.41 121.253C97.1925 133.298 81.0856 139.231 64.8743 140.025C56.3063 140.445 47.7026 139.485 39.2472 137.37C30.7239 135.239 22.3535 131.941 14.0037 128.623C-0.388118 122.907 -15.0602 116.937 -30 117.078V112.691C-13.2557 112.525 2.96144 119.812 19.0327 126.1C27.2285 129.307 35.4783 132.292 43.8741 134.006C52.2411 135.713 60.7126 136.215 69.1359 135.316C84.6764 133.66 100.006 127.018 113.303 114.502C125.623 102.907 136.062 86.53 142.29 66.4967C148.675 45.9598 150.671 22.0373 146.682 0H149.646C150.041 2.31355 150.375 4.64634 150.654 6.99661C153.401 30.0499 150.18 54.4778 142.701 74.8206Z" fill="#EFF669"/>
<path d="M239.579 0C239.105 4.48721 238.602 8.96567 238.062 13.4336C233.443 51.6256 226.153 89.4573 214.125 123.848C203.502 154.221 189.054 181.783 170.96 202.585C152.212 224.142 129.944 236.731 106.56 239.766C82.1309 242.939 57.4538 236.36 34.394 224.194C22.6338 217.991 11.5375 209.794 0.305688 201.713C-9.30993 194.795 -19.3804 188.314 -30 186.586V182.185C-28.9742 182.335 -27.9508 182.531 -26.9307 182.769C-14.7398 185.623 -3.48496 194.039 7.51252 202.127C18.5353 210.232 29.7292 217.589 41.4262 223.159C64.5481 234.171 89.2091 239.277 113.328 234.228C136.23 229.433 157.433 214.69 175.065 192.006C192.471 169.613 205.928 140.772 215.635 109.526C226.372 74.9605 232.663 37.6306 236.671 0L239.579 0Z" fill="#EFF669"/>
<path d="M392.03 58.7429C391.957 58.3617 391.949 58.0067 391.991 57.6849C392.113 58.561 392.222 59.4441 392.32 60.3325C392.227 59.8009 392.13 59.271 392.03 58.7429Z" fill="#EFF669"/>
<path d="M297.606 262.802C295.57 269.29 295.182 276.642 297.134 283.282C298.877 289.206 302.305 293.788 306.013 296.79C310.309 300.27 315.043 301.715 319.889 301.629C325.962 301.524 331.905 299.424 337.766 297.182C343.633 294.937 349.494 292.686 355.489 291.368C366.628 288.919 378.429 289.481 388.754 296.923C390.209 297.971 391.63 299.149 393 300.452V305.641C388.965 301.4 384.356 298.359 379.638 296.624C367.801 292.268 355.452 294.991 343.801 299.361C332.91 303.446 321.025 309.266 309.871 303.932C301.308 299.838 293.139 289.355 292.955 274.725C292.857 266.893 294.993 259.436 298.134 253.361C301.456 246.933 305.95 242.237 310.667 238.471C315.573 234.554 320.732 231.443 325.732 227.824C330.415 224.435 334.998 220.728 339.458 216.697C348.368 208.643 356.816 199.277 364.318 188.37C371.796 177.498 378.405 165.126 383.449 151.357C387.869 139.292 391.146 126.259 393 112.741V129.342C390.542 140.455 387.165 151.108 383.003 160.961C377.347 174.356 370.349 186.275 362.506 196.78C354.686 207.254 346.031 216.241 336.932 223.934C332.333 227.818 327.619 231.383 322.822 234.66C317.792 238.096 312.654 241.288 308.005 245.854C303.671 250.11 299.856 255.641 297.606 262.802Z" fill="#EFF669"/>
<path d="M393 391.702V396.691C392.227 395.985 391.447 395.296 390.661 394.622C370.258 377.125 346.755 369.595 323.484 368.993C298.725 368.353 274.352 375.463 250.826 386.835C224.805 399.414 199.907 416.633 174.982 433.439C162.674 441.736 150.361 450.223 137.775 457.508C128.475 462.892 117.309 467.53 107.495 462.612C102.756 460.239 98.6073 455.362 96.2019 448.64C93.5347 441.182 92.9569 432.368 93.9609 424.085C96.1583 405.968 105.657 392.113 114.51 380.729C132.233 357.939 153.426 342.673 174.671 329.108C196.248 315.33 218.369 303.103 238.853 285.707C259.577 268.108 277.824 244.612 292.407 216.077C307.684 186.182 318.645 151.399 324.254 114.488C329.953 76.9907 330.269 37.6604 325.063 0H327.982C328.88 6.6014 329.62 13.2518 330.189 19.9371C333.612 60.2293 330.95 101.728 322.437 140.233C314.795 174.802 302.384 206.812 286.346 233.896C278.447 247.237 269.668 259.399 260.182 270.08C250.801 280.644 240.702 289.563 230.272 297.492C209.391 313.363 187.335 325.181 166.006 339.519C144.99 353.646 123.793 370.693 107.731 396.238C99.818 408.825 92.8673 427.217 98.1294 444.803C102.853 460.587 115.098 461.817 124.888 458.807C130.289 457.148 135.459 454.264 140.555 451.132C146.886 447.241 153.175 443.191 159.441 439.061C171.987 430.793 184.44 422.201 196.975 413.895C221.741 397.481 246.998 381.99 273.41 372.868C296.283 364.969 320.097 362.159 343.403 366.87C360.804 370.389 377.828 378.429 393 391.702Z" fill="#EFF669"/>
<path d="M100.778 44.6814C99.9839 50.7932 97.8118 56.2841 94.8918 60.5947C91.8926 65.0225 88.3041 68.2856 84.5227 70.9191C80.5965 73.6524 76.4589 75.6302 72.2306 76.9365C63.5719 79.6138 54.6305 79.5578 45.9246 77.3929C37.0901 75.1965 28.5175 70.8212 20.3458 65.3215C16.2117 62.5393 12.1672 59.4528 8.19503 56.1722C4.3033 52.9581 0.510344 49.4729 -3.38828 46.278C-9.57968 41.1997 -16.5924 36.3155 -23.751 36.6565C-23.1985 35.1824 -22.6126 33.7414 -21.9946 32.3355C-13.3336 32.9195 -5.44098 39.3968 1.93471 45.7901C9.63433 52.4667 17.3868 58.9212 25.6182 63.9767C33.7176 68.9501 42.2041 72.6032 50.9042 74.0126C59.3171 75.3766 67.9817 74.6089 76.1247 70.9978C80.0623 69.2526 83.9346 66.9041 87.4633 63.7022C90.7141 60.7538 93.8155 56.9626 95.8257 52.005C97.7567 47.2415 98.7698 41.3046 97.9875 35.7472C97.6223 33.1539 96.8572 30.7739 95.7752 28.7034C94.9263 27.0771 93.6271 25.4263 92.4428 24.3508C89.5608 21.7312 86.3284 20.4879 83.0122 19.8007C79.001 18.9683 74.8875 19.0837 70.8063 19.2708C61.1929 19.715 51.6152 21.4042 41.9904 21.406C34.045 21.406 26.0341 20.1784 18.4608 16.3592C12.8208 13.5158 7.54373 9.32585 3.08799 3.46939C4.17924 2.93429 5.28657 2.45864 6.41113 2.04419C12.0408 8.71554 18.8904 12.6571 25.8388 14.8151C34.3322 17.4521 43.007 17.2965 51.6233 16.569C61.0195 15.7751 70.5019 14.0998 79.9199 14.9864C86.7109 15.6265 94.5174 18.1778 98.6446 27.2572C100.95 32.3267 101.555 38.6973 100.778 44.6814Z" fill="#EFF669"/>
<path d="M99.3567 343.513C99.3119 342.444 98.5997 341.252 97.8324 341.467C85.5082 344.94 73.2173 349.245 61.5248 356.233C50.9799 362.533 40.9335 371.036 32.3931 382.443C24.1926 393.397 17.3051 406.939 13.441 422.576C9.43667 438.777 8.48671 456.884 11.6709 473.608C13.1584 481.423 15.5833 488.885 18.9156 495.259C22.0595 501.273 25.8858 506.355 30.2037 510.33C38.6144 518.071 49.304 521.401 58.8427 516.879C63.5959 514.626 68.1998 510.202 71.1347 503.996C72.5614 500.978 73.6319 497.55 74.0374 493.864C74.4969 489.686 74.0903 485.456 73.1334 481.504C72.1145 477.295 70.5764 473.428 69.1647 469.508C67.7955 465.702 66.6227 461.75 65.6543 457.669C63.7418 449.602 62.6402 441.143 62.3519 432.58C61.789 415.892 64.4126 399.218 70.0239 384.844C75.1677 371.667 82.687 360.654 91.5376 353.208C93.6397 351.44 95.782 349.93 98.0908 348.568C99.0695 347.991 99.1901 346.403 98.795 345.33C99.158 344.922 99.3888 344.305 99.3567 343.513ZM72.605 371.672C65.8714 384.231 61.4306 399.426 59.9764 415.504C58.4199 432.723 60.074 450.693 64.941 466.449C66.1667 470.413 67.6507 474.157 68.9786 478.038C70.2181 481.661 71.2645 485.577 71.361 489.705C71.5172 496.37 68.9132 502.515 65.5165 506.635C58.0639 515.677 47.6166 516.338 38.8751 511.718C29.7925 506.918 22.0699 497.02 17.5326 484.122C12.4267 469.604 11.5537 452.209 13.7833 436.226C16.0255 420.154 21.4921 405.706 28.8115 393.759C35.9919 382.037 44.854 372.72 54.3318 365.756C65.4579 357.581 77.4065 352.351 89.455 348.418C90.5383 348.065 91.6226 347.725 92.7093 347.391C84.9591 353.143 78.0601 361.5 72.605 371.672Z" fill="#EFF669"/>
<path d="M16.3746 311.705C11.3572 326.578 2.48703 337.59 -7.25494 344.821C-14.4549 350.163 -22.1637 353.466 -30 355.893V351.441C-21.3929 348.717 -12.8984 344.87 -5.31711 338.384C3.62193 330.735 11.4651 319.508 15.2799 304.801C17.0075 298.142 17.6692 290.721 17.2809 283.514C16.8984 276.423 15.458 269.419 12.8642 263.525C10.1039 257.252 6.09505 252.663 1.39923 249.844C-3.48037 246.913 -8.89066 245.992 -14.1252 246.03C-19.4471 246.071 -24.7253 247.118 -30 248.166V243.832C-28.9811 243.626 -27.9634 243.421 -26.9457 243.222C-20.9691 242.056 -14.9879 241.237 -8.96303 241.979C-3.48841 242.654 2.05743 244.687 6.80953 249.005C11.3916 253.167 14.9273 259.161 17.2407 266.466C21.7286 280.63 21.0417 297.875 16.3746 311.705Z" fill="#EFF669"/>
</g>
<defs>
<clipPath id="clip0_15_1711">
<rect width="423" height="908" fill="white" transform="translate(-30)"/>
</clipPath>
</defs>
</svg>
