<svg width="393" height="362" viewBox="0 0 393 362" fill="none" xmlns="http://www.w3.org/2000/svg">
<g opacity="0.3">
<path d="M206.207 609.346C202.433 607.584 199.084 604.907 196.419 601.522L192.164 597.38C186.562 592.226 181.56 586.353 177.27 579.891C173.529 573.781 171.191 566.793 170.451 559.508C169.711 552.224 170.59 544.853 173.015 538.01C176.282 526.384 180.263 515.007 184.93 503.953L188.76 494.288C196.31 475.862 201.878 456.56 205.356 436.76C206.624 428.219 206.179 419.483 204.05 411.144C201.92 402.806 198.157 395.061 193.015 388.435C188.534 382.621 182.944 377.925 176.627 374.668C170.31 371.411 163.416 369.67 156.419 369.566H140.674C136.934 368.933 133.477 367.032 130.8 364.137C128.123 361.242 126.365 357.503 125.78 353.458C125.134 348.728 125.134 343.921 125.78 339.191C126.132 326.414 125.419 313.63 123.652 300.991C122.816 287.719 118.429 274.995 111.024 264.372C103.62 253.749 93.5178 245.684 81.9497 241.161L67.0558 236.559L42.3747 225.053C22.7446 214.959 6.2037 198.986 -5.28552 179.03L-10.392 170.286C-14.516 162.088 -19.2105 154.242 -24.4347 146.814C-26.952 142.09 -30.5369 138.133 -34.8537 135.316C-39.1704 132.499 -44.0777 130.913 -49.1159 130.706C-56.2394 130.995 -63.1549 133.382 -69.1162 137.61C-82.7487 146.02 -94.3111 157.854 -102.828 172.111C-111.345 186.369 -116.567 202.633 -118.053 219.531C-119.985 238.142 -118.978 256.973 -115.074 275.219C-115.074 278.44 -115.074 281.202 -115.074 284.423C-115.074 287.645 -111.67 300.991 -110.393 309.736C-108.322 323.143 -108.322 336.829 -110.393 350.236C-113.745 370.876 -120.215 390.778 -129.543 409.146C-133.685 417.848 -139.724 425.329 -147.138 430.942C-154.552 436.555 -163.118 440.131 -172.096 441.362H-189.969C-212.491 441.133 -234.702 435.638 -255.076 425.254L-264.863 420.191C-274.319 415.185 -284.14 411.029 -294.226 407.765C-302.838 405.11 -311.678 403.414 -320.609 402.702H-333.375V356.679H-329.971C-303.115 361.506 -277.806 373.531 -256.353 391.657C-246.926 399.868 -236.811 407.11 -226.14 413.288C-214.823 420.259 -202.13 424.204 -189.118 424.794H-186.139C-177.582 424.897 -169.149 422.571 -161.682 418.049C-154.215 413.527 -147.975 406.966 -143.585 399.021C-133.782 380.653 -128.37 359.931 -127.84 338.73C-127.988 324.599 -129.703 310.539 -132.947 296.849C-136.995 278.63 -138.571 259.871 -137.628 241.161C-137.977 214.359 -133.347 187.753 -124.011 162.922C-118.821 151.159 -112.241 140.175 -104.436 130.246L-95.4995 118.28C-86.1377 105.854 -76.7758 93.4274 -66.563 81.4614C-61.3182 75.1364 -55.47 69.4285 -49.1159 64.4329C-36.3473 54.0322 -25.3957 41.2526 -16.7751 26.694C-6.66302 10.33 4.72623 -5.06731 17.2679 -19.3291C26.4914 -27.7438 36.1528 -35.5805 46.2045 -42.8008L50.4599 -46.4827C59.669 -53.9504 66.6281 -64.1992 70.4601 -75.9375V-78.6988H121.525C121.952 -77.5151 121.952 -76.2008 121.525 -75.017C124.545 -62.875 130.407 -51.7796 138.546 -42.8008C154.975 -23.3595 168.086 -0.920967 177.27 23.4724C182.601 39.8661 190.051 55.3609 199.398 69.4954C208.11 80.7706 217.958 90.9588 228.76 99.8707L235.994 105.854C247.058 115.058 258.122 124.723 270.037 133.007C277.722 138.71 286.693 142.051 295.995 142.672C301.099 142.733 306.151 141.567 310.787 139.259C315.423 136.951 319.528 133.558 322.804 129.325C329.969 120.598 335.984 110.841 340.677 100.331C346.634 86.9842 351.741 73.6375 356.421 60.2908L361.528 45.5634C367.458 33.5774 374.141 22.0447 381.528 11.0461C386.598 2.10293 388.418 -8.55734 386.635 -18.8689C384.545 -34.1097 383.408 -49.4856 383.23 -64.8919C383.23 -67.1931 383.23 -69.034 383.23 -70.8749C383.435 -72.7092 383.435 -74.5634 383.23 -76.3977L429.188 -76.3977C430.501 -75.3241 431.528 -73.8954 432.167 -72.2556C434.491 -65.3963 437.638 -58.8973 441.529 -52.9259C446.37 -45.2857 452.677 -38.8641 460.021 -34.0988C467.364 -29.3335 475.571 -26.3365 484.083 -25.3121H518.126C528.262 -25.1516 538.368 -24.074 548.339 -22.0905C557.103 -19.8866 564.996 -14.7348 570.883 -7.37523C576.771 -0.0156631 580.349 9.17282 581.105 18.8701C582.622 29.7004 582.622 40.7161 581.105 51.5464C579.433 63.103 574.411 73.7868 566.763 82.058C559.115 90.3292 549.237 95.7607 538.551 97.5695C533.749 98.2441 528.886 98.2441 524.083 97.5695C512.364 97.4052 500.846 94.2515 490.466 88.3649C483.232 84.6831 475.997 79.6205 468.763 75.0182L460.253 69.0352C455.653 65.9704 450.811 63.3521 445.784 61.2113C440.668 58.853 435.175 57.6022 429.614 57.5294C420.714 57.8344 412.049 60.6935 404.507 65.8136C393.777 73.3611 384.758 83.4292 378.124 95.2684C371.071 107.912 364.678 120.972 358.975 134.388L355.57 149.115C352.848 156.009 349.111 162.382 344.506 167.985C341.274 172.123 337.228 175.427 332.663 177.657C328.098 179.886 323.131 180.985 318.123 180.871H314.293C296.054 180.325 278.699 172.257 265.782 158.32L242.803 136.229L200.249 96.1888C185.816 81.7995 173.984 64.6325 165.355 45.5634C159.788 31.2475 151.857 18.1474 141.95 6.90407C130.923 -6.10834 115.681 -14.0209 99.3967 -15.187C94.214 -15.0274 89.1356 -13.5733 84.5586 -10.9386C79.9817 -8.30391 76.0303 -4.55992 73.0134 0.000602722C68.449 5.6624 64.4548 11.8336 61.0984 18.4098C48.4877 40.3286 34.2567 61.1069 18.5446 80.541C10.9157 90.1152 5.77579 101.71 3.65076 114.138C1.58124 128.714 3.04761 143.621 7.90616 157.4C12.2402 169.531 19.2264 180.348 28.2673 188.923C37.3082 197.499 48.1349 203.579 59.8217 206.644C67.4814 210.019 75.1411 212.781 82.8007 214.928L99.3967 220.451C117.992 227.553 133.271 242.26 141.95 261.412C144.929 266.934 147.482 272.917 150.036 278.44C152.589 283.963 153.866 287.185 155.568 291.327C163.171 306.653 173.771 320.003 186.632 330.446C200.483 342.349 213.432 355.431 225.356 369.566C236.843 384.084 247.366 399.464 256.846 415.589C263.654 426.634 269.612 431.237 276.846 431.237C283.174 430.56 289.281 428.358 294.718 424.794C309.421 416.218 321.091 402.626 327.91 386.134C335.679 369.003 342.362 351.32 347.911 333.208C352.807 318.376 355.813 302.893 356.847 287.185C356.847 278.9 356.847 271.076 356.847 263.713C356.847 256.349 356.847 249.906 356.847 243.002C357.059 235.237 358.058 227.521 359.826 219.991C361.132 213.229 364.47 207.125 369.319 202.63C374.168 198.134 380.256 195.5 386.635 195.138C392.72 194.498 398.848 194.498 404.933 195.138C418.13 194.916 431.114 198.746 442.38 206.184C455.445 215.366 466.251 227.843 473.87 242.542C485.072 263.553 491.898 286.956 493.87 311.117V317.1C494.156 330.527 496.161 343.847 499.828 356.679C502.993 368.906 510.084 379.512 519.828 386.594C523.079 388.829 526.687 390.389 530.466 391.197H534.722C538.113 391.191 541.417 390.033 544.166 387.886C546.915 385.738 548.97 382.711 550.041 379.231C553.19 369.99 555.471 360.431 556.85 350.696V348.395C559.438 328.833 564.597 309.771 572.169 291.787C578.177 278.789 585.762 266.717 594.722 255.889C603.233 245.764 612.595 236.559 621.106 227.815L628.765 220.451C640.159 208.453 650.686 195.529 660.255 181.792C672.148 165.626 684.937 150.257 698.554 135.769C705.362 128.865 713.022 121.041 722.384 112.297H724.511V195.138C720.992 201.717 716.022 207.252 710.043 211.246C698.564 219.932 686.469 227.626 673.872 234.258L664.511 239.321C651.442 245.929 638.79 253.462 626.638 261.872C605.747 276.283 590.574 298.6 584.084 324.463C581.969 332.869 580.825 341.526 580.68 350.236V354.839C579.849 363.252 579.849 371.738 580.68 380.151C581.651 388.272 584.609 395.965 589.246 402.437C593.884 408.909 600.035 413.926 607.063 416.97C615.156 420.858 623.559 423.939 632.17 426.174L641.957 425.254C657.811 430.097 673.201 436.57 687.915 444.583C697.303 450.184 705.277 458.189 711.138 467.898C716.999 477.607 720.569 488.723 721.533 500.271C723.828 516.903 720.986 533.889 713.447 548.596C708.379 557.944 700.602 565.224 691.319 569.306C683.717 572.687 675.895 575.456 667.915 577.59H661.957C655.731 579.478 649.62 581.784 643.659 584.494C636.657 587.958 630.742 593.556 626.638 600.602C625.88 602.03 624.868 603.282 623.659 604.284H590.893C590.893 604.284 590.893 601.062 590.893 598.761C589.93 591.414 588.364 584.175 586.212 577.13C585.223 574.092 583.592 571.346 581.45 569.109C579.308 566.872 576.713 565.206 573.871 564.243C566.571 562.533 559.181 561.304 551.743 560.562L518.977 557.34H507.913C489.618 556.336 471.658 562.92 457.699 575.749C450.013 583.236 443.791 592.312 439.401 602.443C438.762 604.082 437.735 605.511 436.422 606.585H401.528C401.528 606.585 401.528 606.585 401.528 603.363C404.918 593.222 409.804 583.741 415.997 575.289C431.416 554.838 452.416 540.18 475.997 533.408C481.818 531.649 487.827 530.721 493.87 530.647H512.168C517.836 531.056 523.522 531.056 529.19 530.647C533.398 530.404 537.52 529.262 541.318 527.287C545.115 525.312 548.514 522.544 551.318 519.141C553.68 516.034 555.419 512.429 556.424 508.556C559.792 495.286 559.491 481.239 555.558 468.152C551.626 455.066 544.234 443.512 534.296 434.919L529.615 431.697C522.807 426.634 515.572 421.112 509.189 415.589C492.112 400.048 480.906 378.266 477.7 354.378C474.665 343.27 472.669 331.861 471.742 320.321C471.732 304.756 469.727 289.268 465.785 274.298C461.377 257.999 452.468 243.547 440.252 232.877C432.995 226.573 424.026 223.016 414.72 222.752H406.209C400.704 224.112 395.617 226.988 391.441 231.1C387.266 235.213 384.144 240.422 382.379 246.224C379.246 255.529 377.522 265.32 377.273 275.219C375.688 304.1 372.419 332.845 367.485 361.282C367.485 373.708 364.507 386.134 363.23 398.1V403.163C362.652 424.051 355.945 444.198 344.081 460.692C340.186 465.517 336.067 470.125 331.74 474.498L324.081 483.243C314.752 493.723 308.273 506.78 305.357 520.982C305.357 526.044 305.357 530.647 301.953 535.709C298.548 540.772 298.974 549.976 297.272 557.34C295.57 564.704 290.038 581.732 285.782 593.238L281.952 604.284C281.952 604.284 281.952 604.284 279.825 607.505H206.207V609.346ZM206.207 607.505H280.676C281.492 607.132 282.222 606.567 282.811 605.85C283.4 605.134 283.833 604.284 284.08 603.363C289.186 587.715 295.144 572.067 299.399 557.34C303.655 542.613 304.506 532.948 307.485 520.982C310.363 507.133 316.691 494.4 325.783 484.163C332.166 476.339 339.4 469.436 345.783 461.152C357.865 444.506 364.988 424.284 366.209 403.163C366.785 389.27 368.206 375.433 370.464 361.742C375.426 333.31 378.695 304.563 380.252 275.679C380.841 265.988 383.002 256.486 386.635 247.605C388.264 242.054 391.2 237.057 395.154 233.103C399.108 229.15 403.944 226.376 409.188 225.053H417.273C426.236 225.382 434.875 228.764 441.954 234.718C453.657 245.327 462.236 259.404 466.636 275.219C470.754 290.147 472.762 305.664 472.593 321.242C472.386 332.81 473.242 344.373 475.146 355.759C478.418 379.987 489.77 402.086 507.062 417.89C515.147 424.794 523.658 431.237 532.168 437.22C542.069 445.415 549.442 456.661 553.316 469.477C557.19 482.294 557.383 496.078 553.871 509.016C552.83 512.502 551.247 515.77 549.19 518.681C546.495 521.952 543.226 524.612 539.574 526.508C535.922 528.404 531.959 529.498 527.913 529.726C522.389 530.184 516.841 530.184 511.317 529.726H493.019C486.845 529.926 480.709 530.852 474.721 532.488C450.906 539.781 429.691 554.703 413.869 575.289C407.453 583.655 402.415 593.151 398.975 603.363C398.975 605.664 398.975 607.505 398.975 609.346H434.72C436.556 608.047 437.911 606.093 438.55 603.823C443.035 594.023 449.252 585.267 456.848 578.05C470.479 565.598 487.962 559.185 505.785 560.101H516.849L549.615 563.323C556.773 564.063 563.879 565.293 570.892 567.005C573.639 567.666 576.164 569.132 578.191 571.243C580.217 573.354 581.667 576.028 582.382 578.971C584.787 585.777 586.36 592.894 587.063 600.141C587.001 603.281 587.898 606.354 589.616 608.886H623.659C625.294 607.427 626.727 605.723 627.914 603.823C631.911 597.25 637.506 591.995 644.085 588.636C650.053 586.074 656.164 583.922 662.383 582.192C672.433 579.785 682.261 576.396 691.745 572.067C701.481 567.975 709.704 560.537 715.15 550.897C722.699 535.693 725.533 518.269 723.235 501.192C722.172 489.438 718.478 478.142 712.472 468.279C706.466 458.415 698.33 450.283 688.766 444.583C673.833 436.382 658.144 429.903 641.957 425.254C630.848 422.597 620.014 418.743 609.616 413.748C602.915 410.693 597.05 405.831 592.58 399.627C588.111 393.424 585.185 386.084 584.084 378.31C583.25 368.513 583.25 358.653 584.084 348.855C584.124 340.288 585.27 331.768 587.488 323.543C594.166 298.019 609.319 276.059 630.042 261.872C645.187 251.649 660.97 242.576 677.277 234.718C690.001 228.165 702.114 220.305 713.447 211.246C718.964 206.949 723.6 201.465 727.065 195.138V105.854C727.065 105.854 724.086 105.854 722.809 109.075L698.979 132.547C685.362 147.735 673.021 164.303 660.681 178.57C651.101 192.297 640.574 205.22 629.191 217.229C617.701 228.735 606.212 240.241 595.148 252.667C586.142 263.892 578.426 276.255 572.169 289.486C564.491 308.071 559.331 327.757 556.85 347.935C556.038 357.884 553.887 367.652 550.467 376.93C549.628 380.129 547.842 382.943 545.382 384.938C542.922 386.933 539.924 388 536.849 387.975H531.317C527.725 387.213 524.274 385.813 521.104 383.833C511.628 377.06 504.806 366.731 501.955 354.839C497.932 339.862 495.644 324.402 495.147 308.815C493.405 284.96 486.714 261.836 475.572 241.161C467.687 226.129 456.6 213.349 443.231 203.883C431.63 196.505 418.39 192.686 404.933 192.837C398.792 193.147 392.678 193.916 386.635 195.138C380.375 195.741 374.453 198.47 369.714 202.934C364.975 207.398 361.663 213.368 360.251 219.991C358.416 226.895 357.274 233.993 356.847 241.161C356.847 255.889 356.847 270.156 356.847 287.185C355.813 302.893 352.807 318.376 347.911 333.208C342.196 350.795 335.224 367.875 327.059 384.293C320.307 400.303 308.967 413.536 294.718 422.032C289.446 425.62 283.472 427.826 277.271 428.475C270.888 428.475 265.356 424.333 258.973 413.748C249.313 397.641 238.65 382.265 227.058 367.725C215.213 353.366 202.258 340.125 188.334 328.145C175.628 318.027 165.163 304.979 157.695 289.946C153.014 279.821 149.185 269.236 144.078 259.571C135.392 240.219 120.155 225.222 101.524 217.69C88.3327 213.087 75.1411 209.406 61.9494 203.883C50.8529 200.413 40.6549 194.199 32.1616 185.732C23.6682 177.265 17.1125 166.778 13.0126 155.098C8.22568 141.622 6.75928 127.031 8.7572 112.757C10.8297 100.537 15.817 89.115 23.2255 79.6205C38.8538 60.1136 53.0799 39.3427 65.7792 17.4894C68.9669 11.0542 72.8215 5.03242 77.2687 -0.459625C80.1543 -4.80483 83.9122 -8.38705 88.2603 -10.9377C92.6085 -13.4883 97.4341 -14.941 102.375 -15.187C117.753 -13.6844 132.038 -5.95914 142.376 6.44383C152.376 17.8742 160.442 31.1152 166.206 45.5634C174.832 64.769 186.662 82.0876 201.1 96.649C222.377 117.82 243.654 138.07 264.931 158.78C278.172 173.091 296.004 181.333 314.719 181.792H318.974C323.784 181.561 328.497 180.256 332.818 177.959C337.139 175.662 340.974 172.423 344.081 168.445C349.288 162.697 353.728 156.191 357.272 149.115C364.337 131.691 372.439 114.78 381.528 98.49C387.866 86.9561 396.609 77.1846 407.06 69.9557C414.329 64.9303 422.697 62.0723 431.316 61.6715C436.621 61.5568 441.874 62.8194 446.635 65.3534C451.661 67.4964 456.503 70.1145 461.104 73.1773C471.317 79.6205 481.104 86.9842 491.317 92.507C501.981 98.4525 513.788 101.605 525.785 101.712C530.732 102.362 535.733 102.362 540.679 101.712C551.688 99.4531 561.746 93.4632 569.396 84.6096C577.047 75.756 581.893 64.4982 583.233 52.4669C584.51 41.4646 584.51 30.3326 583.233 19.3303C582.668 9.20096 579.024 -0.442612 572.868 -8.10014C566.711 -15.7577 558.387 -20.9998 549.19 -23.0109C535.137 -25.675 520.903 -27.0606 506.636 -27.153C499.828 -27.153 493.019 -27.153 486.636 -27.153C478.173 -27.9793 469.979 -30.7966 462.628 -35.4076C455.278 -40.0186 448.948 -46.3118 444.082 -53.8464C440.297 -59.8867 437.156 -66.3713 434.72 -73.1761C434.421 -74.8542 433.765 -76.4342 432.805 -77.7918C431.845 -79.1495 430.607 -80.2477 429.188 -81L386.635 -81C386.635 -81 384.507 -78.6988 384.507 -76.8579C384.507 -75.017 384.507 -69.4942 384.507 -65.3522C384.622 -49.9428 385.76 -34.5623 387.911 -19.3291C389.591 -9.66689 387.924 0.325851 383.23 8.74499C377.8 19.7841 372.97 31.1557 368.762 42.8021C362.379 60.7511 356.421 79.6205 348.336 97.1093C343.528 107.406 337.521 116.995 330.464 125.644C327.287 129.615 323.371 132.816 318.971 135.037C314.571 137.258 309.786 138.448 304.931 138.53C295.943 137.995 287.261 134.812 279.825 129.325C265.782 119.2 252.165 107.695 237.271 96.1888C226.373 87.3991 216.512 77.198 207.909 65.8136C198.464 51.8145 191.138 36.2793 186.206 19.7905C175.699 -4.15028 161.447 -25.9482 144.078 -44.6418C136.232 -53.424 130.529 -64.1786 127.482 -75.9375C127.011 -77.924 125.968 -79.697 124.503 -81L72.1623 -81C70.8008 -79.6793 69.6505 -78.1242 68.758 -76.3977C64.8932 -64.9291 57.9237 -54.9857 48.7578 -47.8634C38.082 -39.2767 27.8535 -30.058 18.119 -20.2495C5.23969 -6.18961 -6.30731 9.22813 -16.3495 25.7735C-24.9295 39.9583 -35.7295 52.4175 -48.2648 62.592C-54.4737 67.9453 -60.3055 73.791 -65.7119 80.0807C-79.7546 95.7286 -91.6697 112.757 -104.01 129.325C-111.931 139.256 -118.652 150.236 -124.011 162.002C-134.124 186.958 -139.341 213.913 -139.33 241.161C-139.924 259.335 -137.915 277.499 -133.372 295.008C-129.976 308.509 -128.258 322.438 -128.266 336.429C-128.498 357.388 -133.936 377.894 -144.011 395.799C-148.34 403.739 -154.591 410.25 -162.09 414.629C-169.589 419.009 -178.052 421.091 -186.565 420.651H-189.118C-201.93 419.999 -214.441 416.223 -225.714 409.606C-235.923 403.089 -245.731 395.864 -255.076 387.975C-276.802 369.496 -302.361 357.018 -329.545 351.617H-333.801C-334.767 351.266 -335.813 351.266 -336.779 351.617L-336.779 401.322C-335.678 401.743 -334.476 401.743 -333.375 401.322H-322.737C-313.824 401.92 -304.987 403.461 -296.353 405.924C-282.592 410.911 -269.217 417.066 -256.353 424.333C-235.854 435.373 -213.293 441.197 -190.394 441.362H-172.096C-163.125 439.748 -154.619 435.919 -147.239 430.172C-139.858 424.425 -133.803 416.915 -129.543 408.225C-120.403 389.605 -113.945 369.584 -110.393 348.855C-108.467 335.127 -108.467 321.163 -110.393 307.435C-110.393 295.929 -114.649 284.423 -117.202 272.917C-121.184 254.84 -122.192 236.145 -120.181 217.69C-117.991 200.974 -112.137 185.067 -103.105 171.296C-94.0741 157.525 -82.1283 146.291 -68.2651 138.53C-62.4915 134.659 -55.9013 132.441 -49.1159 132.087C-44.1842 132.486 -39.4334 134.266 -35.33 137.251C-31.2267 140.237 -27.9119 144.325 -25.7113 149.115C-18.9245 159.313 -12.6734 169.915 -6.98767 180.871C4.7301 200.961 21.5803 216.947 41.5236 226.894C54.2897 233.798 67.9069 238.86 81.0986 245.304C91.5984 249.607 100.803 256.949 107.707 266.526C114.611 276.103 118.949 287.548 120.248 299.611C121.305 312.164 121.305 324.796 120.248 337.35C119.596 342.234 119.596 347.193 120.248 352.077C120.908 356.457 122.825 360.503 125.726 363.641C128.628 366.779 132.368 368.852 136.418 369.566H152.589C160.141 369.356 167.641 370.976 174.539 374.307C181.437 377.639 187.558 382.597 192.454 388.819C197.35 395.041 200.897 402.37 202.835 410.266C204.773 418.163 205.053 426.429 203.653 434.458C200.263 454.282 194.692 473.596 187.057 491.987C181.525 506.254 175.568 520.522 171.313 535.249C168.906 542.408 168.039 550.065 168.776 557.641C169.513 565.216 171.836 572.511 175.568 578.971C179.992 585.595 185.135 591.621 190.887 596.92C195.32 601.953 200.498 606.153 206.207 609.346V607.505Z" fill="#D7FC70" fill-opacity="0.22"/>
<path d="M-216.352 609.348C-216.711 608.31 -216.711 607.166 -216.352 606.127C-220.864 588.984 -229.025 573.222 -240.182 560.104C-249.902 547.392 -262.111 537.175 -275.927 530.189C-282.922 526.99 -290.462 525.422 -298.055 525.586H-313.375H-322.737H-330.822V403.625C-307.509 404.759 -284.832 412.196 -264.863 425.256C-245.355 436.627 -223.943 443.668 -201.884 445.966H-188.692C-179.016 446.197 -169.374 444.641 -160.181 441.364C-146.379 436.459 -134.916 425.879 -128.266 411.909C-116.058 387.59 -108.667 360.788 -106.564 333.21C-105.352 319.168 -106.359 305.005 -109.542 291.329C-109.74 287.957 -109.74 284.576 -109.542 281.204C-111.853 272.611 -113.56 263.842 -114.649 254.971C-119.045 222.455 -111.399 189.377 -93.3719 162.925C-84.5252 149.869 -72.421 139.811 -58.4778 133.93C-54.538 132.262 -50.3654 131.329 -46.1372 131.169C-41.6338 131.552 -37.2791 133.087 -33.4319 135.648C-29.5847 138.208 -26.3551 141.721 -24.0092 145.896C-18.9375 153.279 -14.2494 160.961 -9.96652 168.908C-6.5459 176.019 -2.55914 182.795 1.94855 189.158C10.3474 201.571 21.0788 211.922 33.4383 219.533C44.0869 226.416 55.3496 232.121 67.0558 236.561L83.2262 243.925C90.7446 246.928 97.6305 251.529 103.477 257.458C109.324 263.386 114.014 270.522 117.269 278.442C120.858 288.963 123.147 299.95 124.078 311.119C124.078 316.181 124.078 321.704 124.078 326.767C123.66 333.202 123.66 339.661 124.078 346.096C126.631 364.045 133.865 367.727 147.482 368.648H154.717C159.789 367.746 164.963 367.746 170.036 368.648C180.74 372.667 189.919 380.393 196.15 390.627C202.382 400.862 205.318 413.033 204.504 425.256C203.575 441.119 200.12 456.688 194.291 471.279L184.079 498.433C181.525 505.797 178.547 513.16 175.993 520.984C171.85 530.694 169.397 541.148 168.759 551.82C168.49 561.823 171.505 571.606 177.27 579.433C180.827 584.582 184.973 589.221 189.611 593.24L195.143 598.763L201.951 606.127H118.971C115.838 594.452 111.854 583.064 107.056 572.07C98.4428 551.203 92.295 529.246 88.7582 506.717C85.9383 489.7 81.9557 472.932 76.8432 456.552C73.8676 445.955 67.7614 436.706 59.4603 430.222C51.1593 423.738 41.1215 420.377 30.8851 420.654H28.3319C6.7999 421.612 -13.6512 431.115 -29.1157 447.347C-41.8935 459.706 -52.4283 474.533 -60.1799 491.069L-64.4353 498.433C-73.3716 514.541 -82.7334 531.569 -91.2442 549.058C-100.015 565.692 -106.332 583.705 -109.968 602.445C-109.552 604.103 -109.552 605.85 -109.968 607.508H-135.926C-135.926 607.508 -135.926 605.206 -135.926 602.905C-132.723 592.447 -128.738 582.289 -124.011 572.53C-108.673 533.26 -88.9516 496.166 -65.2864 462.075C-44.6828 432.964 -16.9766 410.65 14.7147 397.642C24.5881 393.485 34.6761 389.951 44.9279 387.057C52.2958 384.666 59.0323 380.414 64.5815 374.653C70.1308 368.891 74.3336 361.785 76.8432 353.92C82.5252 339.301 85.8361 323.732 86.6305 307.897C86.8995 300.404 85.5827 292.943 82.7803 286.083C79.9779 279.224 75.764 273.148 70.4601 268.317C62.1964 261.334 53.3661 255.172 44.0768 249.908H40.2469H38.1193C26.1475 243.117 14.6299 235.427 3.6507 226.897C-5.83875 218.49 -14.5339 209.086 -22.3071 198.823C-26.98 192.566 -32.1024 186.718 -37.6264 181.334C-43.4422 175.56 -51.01 172.286 -58.9033 172.129C-64.1149 172.446 -69.2035 173.966 -73.8274 176.585C-78.4513 179.205 -82.5035 182.864 -85.7122 187.317C-91.5615 195.442 -95.7913 204.789 -98.135 214.769C-100.479 224.75 -100.885 235.147 -99.3294 245.306C-98.2916 256.375 -96.297 267.315 -93.3719 277.982C-88.6706 297.913 -88.6706 318.802 -93.3719 338.733C-98.403 366.769 -105.957 394.207 -115.925 420.654C-119.651 431.156 -125.853 440.42 -133.916 447.525C-141.979 454.631 -151.621 459.329 -161.883 461.154C-170.615 462.863 -179.42 464.092 -188.267 464.836H-192.948C-203.156 465.361 -213.284 467.058 -223.161 469.898C-227.012 470.954 -230.629 472.831 -233.799 475.421C-236.359 477.815 -238.238 480.946 -239.217 484.449C-240.196 487.952 -240.236 491.685 -239.331 495.211C-237.975 503.003 -235.072 510.383 -230.82 516.842C-225.78 525.791 -220.237 534.398 -214.224 542.615L-205.714 555.041C-195.712 568.8 -188.073 584.388 -183.16 601.064C-183.16 601.064 -183.16 603.826 -183.16 605.206H-216.352V609.348ZM-216.352 605.206H-181.458C-180.933 604.062 -180.66 602.802 -180.66 601.525C-180.66 600.247 -180.933 598.987 -181.458 597.843C-186.615 581.187 -194.389 565.618 -204.437 551.82C-212.948 539.393 -221.884 527.427 -229.544 514.081C-233.489 507.608 -236.368 500.445 -238.055 492.91C-238.769 489.658 -238.63 486.254 -237.653 483.083C-236.675 479.912 -234.899 477.099 -232.523 474.961C-229.562 472.944 -226.214 471.685 -222.735 471.279C-211.142 468.282 -199.32 466.433 -187.416 465.756C-177.704 465.239 -168.036 464.008 -158.479 462.075C-147.969 460.17 -138.094 455.353 -129.816 448.094C-121.538 440.836 -115.14 431.382 -111.244 420.654C-101.416 393.996 -93.8669 366.42 -88.6909 338.272C-84.0068 318.028 -84.0068 296.846 -88.6909 276.602C-91.5322 265.912 -93.5252 254.981 -94.6485 243.925C-95.9562 234.233 -95.463 224.357 -93.1979 214.874C-90.9328 205.391 -86.9412 196.492 -81.4568 188.697C-78.5275 184.292 -74.702 180.674 -70.2753 178.12C-65.8486 175.567 -60.9388 174.147 -55.9246 173.97C-49.4889 174.678 -43.4765 177.767 -38.903 182.714C-33.3744 187.928 -28.2508 193.623 -23.5837 199.743C-15.5165 210.322 -6.38171 219.893 3.6507 228.277C14.1405 236.605 25.2414 243.994 36.8426 250.368C47.4041 255.964 57.3888 262.752 66.6302 270.619C71.8576 275.188 76.0097 281.032 78.7464 287.672C81.4831 294.312 82.7267 301.558 82.3752 308.818C81.7521 324.678 78.4344 340.279 72.5878 354.841C70.3076 362.512 66.3217 369.461 60.9799 375.078C55.638 380.694 49.1033 384.808 41.9491 387.057C31.7361 390.279 21.5233 393.5 11.7359 397.642C-20.3583 410.775 -48.3802 433.425 -69.1162 462.995C-92.8947 497.088 -112.757 534.178 -128.266 573.45C-132.161 583.167 -135.431 593.162 -138.053 603.365C-138.053 606.127 -138.053 608.888 -138.053 611.189H-112.095C-110.645 609.381 -109.753 607.129 -109.542 604.746C-105.879 586.228 -99.7133 568.394 -91.2442 551.82C-81.0313 532.03 -70.8184 513.16 -60.1799 493.83C-52.1862 477.857 -41.8375 463.4 -29.5412 451.029C-14.4304 434.783 5.76538 425.258 27.0553 424.336H29.6085C39.2721 424.005 48.7517 427.243 56.4865 433.517C64.2213 439.791 69.7499 448.727 72.1622 458.853C78.9522 474.422 84.5043 490.589 88.7582 507.177C91.735 528.885 97.3139 550.08 105.354 570.229C110.347 581.661 114.474 593.513 117.695 605.667C117.695 605.667 117.695 607.968 120.248 609.348H205.355L195.568 599.223C189.09 593.369 183.109 586.9 177.696 579.894C172.33 572.216 169.485 562.823 169.61 553.2C170.363 542.747 172.662 532.491 176.419 522.825C182.376 506.257 189.185 490.149 195.143 473.58C201.429 458.301 205.174 441.942 206.207 425.256C206.179 413.242 202.618 401.549 196.039 391.869C189.46 382.189 180.204 375.023 169.61 371.409C161.964 370.728 154.278 370.728 146.631 371.409C133.014 371.409 127.482 366.807 124.929 350.699C122.376 334.591 124.929 327.227 124.929 315.721C123.977 304.406 121.689 293.27 118.12 282.585C115.265 273.236 110.545 264.68 104.295 257.523C98.0446 250.365 90.4162 244.78 81.9496 241.164C64.8321 234.521 48.191 226.522 32.1617 217.232C19.9854 209.525 9.41019 199.185 1.09747 186.857C-8.26434 173.05 -15.073 157.402 -24.8603 144.055C-27.283 139.578 -30.6829 135.81 -34.7629 133.083C-38.8429 130.355 -43.4787 128.75 -48.2649 128.407C-52.6357 128.524 -56.9549 129.458 -61.031 131.169C-75.4833 136.974 -87.9536 147.41 -96.7762 161.084C-105.965 174.486 -112.613 189.722 -116.338 205.914C-120.062 222.105 -120.79 238.934 -118.479 255.431C-116.68 267.835 -114.265 280.126 -111.244 292.249C-108.325 305.815 -107.321 319.78 -108.266 333.67C-110.682 359.872 -118.07 385.254 -129.968 408.228C-136.31 421.73 -147.319 431.983 -160.607 436.762C-169.692 439.861 -179.166 441.413 -188.692 441.364H-201.884C-223.672 439.056 -244.804 432.011 -264.012 420.654C-285.676 407.874 -309.975 401.225 -334.652 401.324H-336.779V527.888C-336.308 528.103 -335.802 528.214 -335.29 528.214C-334.778 528.214 -334.272 528.103 -333.801 527.888L-316.779 524.666H-301.46C-294.015 524.629 -286.638 526.194 -279.757 529.268C-266.234 535.929 -254.298 545.847 -244.863 558.263C-233.754 571.345 -225.725 587.133 -221.459 604.286C-221.348 605.258 -221.019 606.186 -220.5 606.989C-219.98 607.791 -219.287 608.443 -218.48 608.888L-216.352 605.206Z" fill="#D7FC70" fill-opacity="0.22"/>
<path d="M283.233 609.351L287.488 596.465C293.18 578.53 297.869 560.241 301.531 541.697C303.373 530.428 306.077 519.345 309.616 508.56C312.399 500.797 316.433 493.629 321.531 487.39L333.021 474.503L339.829 467.14C353.605 451.832 362.03 431.82 363.659 410.531C366.213 381.997 370.468 353.002 374.298 327.69C375.922 316.258 376.917 304.732 377.277 293.172V287.189C378.861 273.924 382.007 260.932 386.638 248.53C388.69 241.436 392.753 235.219 398.251 230.758C403.749 226.298 410.405 223.821 417.277 223.678H422.384C431.073 225.555 439.198 229.732 446.03 235.836C452.862 241.94 458.188 249.78 461.533 258.655C468.34 272.94 472.256 288.629 473.023 304.678C473.023 309.281 473.023 313.423 473.023 317.565C473.169 329.9 474.165 342.207 476.001 354.383C480.3 380.053 493.554 402.955 513.023 418.355L521.108 424.338L535.576 436.304C541.596 441.255 546.543 447.568 550.071 454.802C553.599 462.036 555.623 470.017 556.002 478.185C556.895 486.287 556.895 494.475 556.002 502.577C555.268 507.663 553.191 512.41 550.02 516.248C546.849 520.086 542.72 522.85 538.13 524.208C532.148 526.615 525.783 527.711 519.406 527.43H486.214C470.915 529.682 456.33 535.834 443.66 545.379C430.417 554.315 418.982 566.057 410.043 579.896C405.302 587.352 401.709 595.59 399.405 604.288H358.979C358.551 603.105 358.551 601.79 358.979 600.607C358.548 598.019 358.548 595.37 358.979 592.783C359.389 587.576 359.389 582.341 358.979 577.135C359.002 575.122 358.494 573.143 357.514 571.431C356.534 569.719 355.123 568.345 353.447 567.47H350.893C349.326 567.598 347.8 568.073 346.41 568.865C345.019 569.656 343.793 570.748 342.808 572.072C335.96 579.74 330.606 588.818 327.063 598.766C326.961 599.927 326.645 601.055 326.133 602.083C325.622 603.11 324.925 604.017 324.084 604.749H288.765L283.233 609.351ZM286.212 604.749H324.51C326.977 602.721 328.647 599.764 329.191 596.465C332.861 586.723 338.203 577.822 344.936 570.231C345.728 569.051 346.746 568.07 347.922 567.356C349.097 566.641 350.401 566.209 351.744 566.089H353.872C357.276 566.089 357.702 571.612 358.553 575.294C358.978 582.958 358.978 590.642 358.553 598.305C358.553 600.607 358.553 602.908 358.553 604.749H401.107C403.144 595.661 406.754 587.072 411.745 579.436C420.394 565.614 431.72 553.993 444.937 545.379C457.567 535.834 472.188 529.826 487.491 527.89H520.257C526.764 528.015 533.242 526.925 539.406 524.669C544.333 523.286 548.774 520.367 552.179 516.276C555.583 512.184 557.801 507.101 558.556 501.657C559.406 493.398 559.406 485.063 558.556 476.805C558.419 467.948 556.48 459.232 552.877 451.277C549.273 443.323 544.092 436.325 537.704 430.781L514.3 419.276C495.223 404.449 482.246 382.158 478.129 357.145C474.939 340.756 472.806 324.148 471.746 307.44C471.414 290.295 467.485 273.457 460.256 258.195C456.655 249.157 451.107 241.182 444.074 234.937C437.041 228.692 428.728 224.358 419.83 222.297H414.298C407.023 222.358 399.958 224.938 394.138 229.659C388.318 234.38 384.049 240.994 381.958 248.53C378.841 260.853 376.986 273.508 376.426 286.269C376.426 300.076 376.426 314.343 373.021 328.15C368.766 355.304 364.936 382.917 362.383 410.991C360.862 431.814 352.57 451.38 338.978 466.219L320.68 486.469C315.516 492.829 311.477 500.161 308.765 508.1C305.147 519.051 302.302 530.282 300.254 541.697C294.994 564.654 288.457 587.246 280.68 609.351L286.212 604.749Z" fill="#D7FC70" fill-opacity="0.22"/>
<path d="M301.537 139.914C298.288 140.361 294.999 140.361 291.75 139.914C284.185 138.02 277.079 134.412 270.898 129.328C253.082 116.576 236.157 102.424 220.26 86.9871C208.212 75.5297 198.378 61.6093 191.323 46.0265C188.418 40.0683 185.86 33.92 183.663 27.6173C180.945 17.5974 177.677 7.76176 173.876 -1.83747C166.994 -13.8535 158.855 -24.9723 149.62 -34.9741C144.49 -41.3005 139.661 -47.9058 135.152 -54.764C130.905 -61.5642 128.007 -69.2429 126.641 -77.3153H179.408C179.408 -77.3153 179.408 -77.3153 179.408 -72.2528C184.6 -42.4302 191.276 -12.9325 199.408 16.1115C203.451 32.1963 210.715 47.1228 220.685 59.8335C226.571 67.2055 233.458 73.5679 241.111 78.7029C252.841 86.9289 266.031 92.4153 279.835 94.811H283.239C288.684 94.725 293.907 92.4709 297.912 88.4801C301.916 84.4892 304.419 79.0419 304.941 73.1801C305.791 64.4599 305.791 55.6672 304.941 46.947V41.8845C302.138 13.0203 305.039 -16.1587 313.452 -43.7185C316.761 -53.1093 321.044 -62.0643 326.218 -70.4119V-73.1733C327.286 -75.4327 328.728 -77.4607 330.474 -79.1562H379.836C379.836 -79.1562 379.836 -75.0142 379.836 -72.713C379.625 -70.7252 379.625 -68.7178 379.836 -66.73C380.93 -50.4537 383.207 -34.2958 386.645 -18.4058C388.466 -8.94944 386.948 0.901634 382.389 9.20807C375.187 24.1348 368.793 39.5018 363.24 55.2311V57.0721V61.6744C357.383 79.7969 349.826 97.2232 340.687 113.68C336.472 120.621 331.307 126.828 325.367 132.09C322.07 135.032 318.267 137.239 314.176 138.582C310.086 139.925 305.79 140.377 301.537 139.914ZM301.537 139.914C308.768 139.881 315.79 137.295 321.537 132.55C327.855 127.409 333.2 121.003 337.282 113.68C347.539 95.86 355.958 76.8772 362.389 57.0721C368.108 41.2697 374.789 25.895 382.389 11.049C386.886 1.88138 388.385 -8.66065 386.645 -18.866C384.324 -34.0774 383.185 -49.4722 383.24 -64.8891C383.24 -69.4914 383.24 -74.0937 383.24 -79.1563L333.027 -79.1562C330.185 -76.7517 327.982 -73.5758 326.644 -69.9516C321.252 -61.5076 316.823 -52.3905 313.452 -42.798C305.107 -14.9053 302.209 14.558 304.941 43.7254C306.217 53.6493 306.217 63.7164 304.941 73.6404C304.52 79.096 302.241 84.1882 298.546 87.9297C294.851 91.6712 290.002 93.7954 284.941 93.8905H281.537C268.025 91.6582 255.111 86.3227 243.664 78.2427C236.157 73.2624 229.41 67.0521 223.664 59.8335C213.923 47.1987 206.811 32.4438 202.813 16.5717C194.869 -12.2694 188.061 -41.7241 182.387 -71.7926C182.387 -74.5539 182.387 -77.3153 178.982 -78.696H124.514C125.835 -69.6046 129.035 -60.9524 133.876 -53.3833C138.369 -46.9528 143.2 -40.8063 148.344 -34.9741C156.86 -24.374 164.28 -12.7996 170.472 -0.456779C178.131 14.7308 183.663 30.8389 190.472 45.5663C197.662 61.3158 207.638 75.3881 219.834 86.9871C236.087 102.296 253.136 116.586 270.898 129.789C277.19 134.957 284.453 138.57 292.175 140.374C295.567 140.817 298.996 140.817 302.388 140.374L301.537 139.914Z" fill="#D7FC70" fill-opacity="0.22"/>
<path d="M275.152 429.397C272.072 429.242 269.083 428.228 266.473 426.453C263.863 424.679 261.722 422.205 260.258 419.272L253.449 408.686C247.066 398.561 240.258 388.436 233.023 378.771C224.71 367.448 215.605 356.832 205.789 347.016L191.321 333.209C183.962 326.801 176.997 319.883 170.469 312.498C163.859 304.951 158.272 296.429 153.873 287.186L150.044 277.521C146.402 268.356 141.986 259.574 136.852 251.288C128.648 236.59 116.031 225.381 101.107 219.532L83.2341 213.549L60.6807 205.725C48.5759 200.92 37.5524 193.391 28.3398 183.634C17.6473 170.744 10.6925 154.74 8.33953 137.611C5.89056 121.66 8.91747 105.292 16.8503 91.5875C20.618 85.0413 24.7386 78.7406 29.1909 72.718C40.4605 58.3398 50.5686 42.9423 59.4041 26.695C63.6594 19.3313 68.7659 10.5869 74.2979 2.30273C77.5354 -2.37373 81.7003 -6.20657 86.4867 -8.91435C91.2732 -11.6221 96.5596 -13.1361 101.958 -13.3451C105.474 -14.0457 109.08 -14.0457 112.596 -13.3451C130.832 -7.07697 146.094 6.62379 155.15 24.854C158.129 30.3768 161.108 35.8996 163.661 41.4223C166.214 46.9451 173.023 60.2918 178.555 69.0362C188.191 83.2747 199.33 96.2488 211.747 107.696L215.151 110.917L248.768 143.594H251.321C259.931 153.145 269.493 161.635 279.832 168.906C290.217 175.82 302.11 179.632 314.301 179.952C318.404 180.404 322.539 180.404 326.642 179.952C331.562 178.797 336.214 176.569 340.311 173.404C344.409 170.239 347.866 166.202 350.472 161.543C353.209 157.634 355.63 153.476 357.706 149.116L361.11 141.753C366.755 127.396 373.443 113.546 381.11 100.332C387.403 89.1862 395.816 79.6163 405.792 72.2578C413.319 66.6237 422.176 63.4305 431.324 63.0532C439.146 63.1109 446.803 65.4995 453.452 69.9566L473.878 82.8431L487.92 92.0477C499.098 99.3127 511.901 103.132 524.942 103.093C535.477 103.935 546.008 101.419 555.235 95.8571C564.462 90.2951 571.979 81.9305 576.858 71.7976C580.978 63.0824 583.301 53.504 583.666 43.7235C584.621 32.1443 583.758 20.474 581.113 9.2062C579.274 1.33767 575.426 -5.81281 570.008 -11.4283C564.591 -17.0437 557.821 -20.8976 550.474 -22.5497C541.486 -24.4558 532.386 -25.686 523.24 -26.2316H505.793C495.936 -25.7798 486.067 -26.7079 476.431 -28.993C468.015 -31.4548 460.212 -35.9124 453.587 -42.042C446.963 -48.1717 441.684 -55.8196 438.132 -64.4307C436.46 -67.8333 435.037 -71.3726 433.877 -75.016H467.069L469.622 -72.7149C472.309 -67.8033 475.876 -63.5223 480.115 -60.1238C484.353 -56.7252 489.177 -54.2776 494.303 -52.9249C500.962 -52.1727 507.681 -52.3273 514.304 -53.3852C525.083 -53.3568 535.769 -55.5433 545.793 -59.8284C549.192 -61.1823 552.301 -63.2669 554.934 -65.9563C557.567 -68.6457 559.669 -71.8841 561.113 -75.4763C561.327 -76.7134 561.83 -77.8706 562.575 -78.8374C563.32 -79.8043 564.282 -80.5485 565.368 -80.999L599.411 -80.999C599.827 -79.3415 599.827 -77.594 599.411 -75.9365C600.496 -67.8062 603.72 -60.1852 608.7 -53.983C613.68 -47.7809 620.205 -43.2596 627.497 -40.959L641.965 -34.976L657.71 -29.4532C677.719 -21.7033 694.882 -7.17651 706.647 11.9676L716.859 28.0757L721.115 34.5189C721.913 35.8437 722.624 37.2278 723.243 38.661V42.3428V103.093C708.168 117.44 693.954 132.813 680.689 149.116L660.263 176.27L653.454 185.935C644.18 198.373 634.234 210.206 623.667 221.373L617.709 226.895C605.012 238.94 593.335 252.185 582.815 266.475C568.958 287.977 560.057 312.752 556.857 338.731V346.555C555.588 356.719 553.451 366.733 550.474 376.47C549.525 379.892 547.629 382.917 545.043 385.138C542.456 387.36 539.302 388.671 536.006 388.897H530.9C525.67 387.193 520.839 384.299 516.729 380.409C512.619 376.52 509.325 371.724 507.07 366.345C501.122 353.799 497.919 339.942 497.708 325.845C496.68 298.73 490.601 272.118 479.835 247.606C474.724 235.177 467.222 224.069 457.83 215.022C448.438 205.975 437.371 199.197 425.366 195.139C418.255 193.314 410.972 192.387 403.664 192.378C397.926 192.751 392.229 193.675 386.642 195.139C379.597 196.745 373.237 200.816 368.545 206.722C363.854 212.628 361.091 220.041 360.685 227.816C359.04 241.085 358.329 254.47 358.557 267.856C358.869 299.73 352.312 331.244 339.408 359.902L337.28 365.425C332.143 378.463 325.873 390.945 318.556 402.703C309.876 415.821 297.475 425.516 283.237 430.317H277.279L275.152 429.397ZM277.279 430.317H284.088C298.53 425.211 311.066 415.205 319.833 401.783C328.252 388.335 335.381 373.994 341.11 358.982C353.786 330.238 360.33 298.781 360.259 266.935C360.106 253.704 360.817 240.478 362.387 227.356C362.428 219.799 364.855 212.485 369.267 206.626C373.678 200.766 379.809 196.714 386.642 195.139C392.868 194.456 399.141 194.456 405.366 195.139C412.394 195.148 419.395 196.075 426.217 197.901C437.888 201.82 448.642 208.411 457.747 217.226C466.852 226.041 474.096 236.873 478.984 248.986C489.785 273.16 495.869 299.479 496.857 326.305C497.335 340.658 500.521 354.753 506.218 367.726C508.584 373.32 512.06 378.283 516.399 382.26C520.738 386.237 525.834 389.131 531.325 390.737C533.15 391.147 535.033 391.147 536.857 390.737C540.467 390.668 543.957 389.327 546.798 386.918C549.639 384.51 551.677 381.165 552.602 377.391C556.548 365.163 559.259 352.51 560.687 339.652C564.186 313.667 573.539 289.011 587.922 267.856C600.147 251.285 613.672 235.886 628.348 221.833C639.388 211.032 649.5 199.171 658.561 186.395C667.497 174.429 676.434 162.003 686.221 150.037C699.288 133.533 713.515 118.146 728.775 104.014V42.3428C727.85 39.2624 726.563 36.3234 724.945 33.5984C720.264 26.2347 715.157 18.871 710.476 11.0471C698.539 -8.30095 681.042 -22.8579 660.689 -30.3736C649.199 -34.976 638.986 -34.976 628.773 -40.959C621.74 -43.076 615.442 -47.395 610.671 -53.373C605.901 -59.3509 602.872 -66.7208 601.964 -74.5558C601.754 -76.9385 600.861 -79.1908 599.411 -80.999L564.943 -80.999C563.339 -79.8244 562.025 -78.2447 561.113 -76.3967C559.826 -72.9064 557.871 -69.7494 555.378 -67.1322C552.885 -64.515 549.909 -62.4966 546.645 -61.2091C536.325 -56.965 525.341 -54.9329 514.304 -55.2261C506.826 -55.1939 499.38 -56.278 492.176 -58.4477C483.541 -61.9695 476.316 -68.6441 471.75 -77.3172C471.75 -77.3172 467.495 -80.999 466.218 -80.999H429.196C429.196 -75.9365 433.026 -70.8739 435.154 -65.8114C438.81 -56.9804 444.272 -49.1616 451.127 -42.9436C457.982 -36.7256 466.051 -32.2704 474.729 -29.9134C488.752 -27.0581 503.017 -25.8239 517.282 -26.2316C528.008 -26.1706 538.701 -24.937 549.198 -22.5497C556.254 -21.0265 562.764 -17.3606 567.964 -11.9811C573.164 -6.60168 576.839 0.268669 578.56 7.8255C581.369 18.906 582.235 30.4574 581.113 41.8826C580.971 51.348 578.785 60.6465 574.73 69.0362C569.946 78.8871 562.604 87.0107 553.607 92.4075C544.61 97.8042 534.351 100.239 524.091 99.4114C511.459 99.387 499.083 95.5626 488.346 88.3659L453.877 66.2748C446.897 61.8665 438.981 59.4881 430.898 59.3713C421.471 59.6509 412.316 62.8451 404.515 68.576C394.372 76.2462 385.821 86.1216 379.408 97.5705C370.476 114.054 362.792 131.293 356.429 149.116C354.198 154.066 351.638 158.834 348.77 163.383C343.666 172.189 335.565 178.471 326.216 180.872C322.257 181.347 318.261 181.347 314.301 180.872C302.378 180.545 290.76 176.728 280.684 169.827C269.634 161.94 259.367 152.841 250.045 142.673L213.023 106.775C200.472 95.655 189.314 82.8139 179.831 68.576C170.895 54.769 164.512 39.1212 156.852 22.5529C147.503 4.381 132.387 -9.51537 114.298 -16.5667C110.624 -17.0441 106.909 -17.0441 103.234 -16.5667C97.5463 -16.4608 91.9614 -14.9052 86.9336 -12.0264C81.9057 -9.14752 77.5766 -5.02663 74.2979 0.00157928C68.9424 7.84516 63.971 15.9871 59.4041 24.3938C50.4582 40.5635 40.3563 55.9515 29.1909 70.4169C24.9355 76.3999 20.2546 82.3829 16.4248 88.8261C8.90066 102.703 5.90353 118.91 7.91403 134.849C10.1015 152.941 17.2111 169.921 28.3398 183.634C37.6307 193.841 48.9961 201.563 61.5317 206.185C74.7234 212.168 88.3406 215.39 101.958 220.452C116.438 226.244 128.718 237.095 136.852 251.288C143.198 262.708 148.883 274.543 153.873 286.725C158.096 296.637 163.692 305.794 170.469 313.879C181.108 326.305 194.299 335.97 205.789 347.476C215.514 357.227 224.613 367.683 233.023 378.771C242.811 391.658 250.896 405.925 259.832 419.272C261.498 422.491 263.898 425.195 266.802 427.128C269.707 429.062 273.021 430.159 276.428 430.317H277.279Z" fill="#D7FC70" fill-opacity="0.22"/>
<path d="M-186.99 420.191C-202.134 419.468 -216.825 414.384 -229.544 405.464C-236.778 400.401 -244.438 394.879 -251.246 389.356L-269.119 379.231C-288.254 365.592 -309.635 356.061 -332.098 351.157H-336.779V305.134C-326.566 311.577 -315.928 317.56 -305.29 323.083L-285.289 333.208C-269.897 343.04 -255.616 354.779 -242.736 368.185C-231.663 380.21 -218.503 389.75 -204.012 396.259C-199.097 398.212 -193.925 399.3 -188.692 399.481C-180.002 398.814 -171.711 395.28 -164.938 389.354C-158.165 383.428 -153.237 375.396 -150.819 366.344C-145.878 348.01 -145.878 328.531 -150.819 310.196C-155.255 287.514 -156.404 264.225 -154.224 241.161C-153.42 215.7 -151.003 190.328 -146.99 165.223C-144.688 152.041 -139.908 139.509 -132.947 128.405C-131.77 125.652 -130.345 123.031 -128.692 120.581C-121.292 109.04 -115.017 96.7015 -109.968 83.7626C-105.287 72.7171 -101.457 60.7511 -97.6273 49.7055L-95.0741 42.3418C-91.801 32.115 -86.5906 22.7393 -79.7762 14.8146C-72.9617 6.88977 -64.6931 0.590225 -55.4991 -3.68124C-38.1224 -10.9129 -22.1144 -21.5191 -8.26443 -34.9769C4.26181 -47.2955 15.0187 -61.5663 23.6509 -77.3182H70.0345C66.8166 -65.6126 60.264 -55.3045 51.3108 -47.8634L46.2044 -45.102C32.396 -33.6471 19.4476 -21.028 7.48047 -7.36308C-1.23599 3.49404 -9.20093 15.031 -16.3496 27.1542C-25.4707 41.5776 -36.6779 54.32 -49.5415 64.8931C-62.5327 76.0842 -74.2463 88.9074 -84.4356 103.092C-92.9464 114.138 -101.032 125.183 -109.117 136.689C-123.69 156.461 -132.964 180.182 -135.926 205.263C-137.548 217.159 -138.542 229.144 -138.904 241.161C-139.407 258.999 -137.544 276.822 -133.372 294.088C-129.362 309.025 -127.637 324.572 -128.266 340.111C-128.499 363.417 -135.996 385.957 -149.543 404.083C-156.658 413.452 -166.903 419.406 -178.054 420.651H-186.99V420.191ZM-186.99 420.651H-178.054C-166.261 419.299 -155.422 413.025 -147.841 403.163C-134.402 384.616 -126.931 361.83 -126.564 338.27C-126.065 322.736 -127.787 307.212 -131.67 292.247C-135.716 275.582 -137.578 258.386 -137.202 241.161C-136.843 229.449 -135.848 217.77 -134.223 206.184C-131.013 181.397 -121.924 157.931 -107.84 138.07L-81.4568 103.092C-71.446 88.9023 -60.0305 75.9388 -47.4138 64.4329C-34.3282 53.8027 -22.9675 40.8937 -13.7964 26.2337C-6.57507 14.311 1.3866 2.9325 10.0337 -7.82332C23.0094 -23.2952 37.252 -37.4666 52.5874 -50.1645C62.0363 -57.8703 68.9077 -68.6946 72.1621 -81H23.2254V-78.2386C14.6854 -62.0168 3.76248 -47.4054 -9.11551 -34.9769C-22.7393 -20.6281 -38.7713 -9.22489 -56.3501 -1.38009C-65.6372 2.8139 -74.0009 9.08138 -80.894 17.0123C-87.787 24.9432 -93.0541 34.3587 -96.3506 44.643L-111.244 86.0638C-117.96 101.287 -125.786 115.907 -134.649 129.786C-141.415 141.336 -146.174 154.125 -148.692 167.525C-152.491 191.888 -154.907 216.479 -155.926 241.161C-157.134 263.757 -155.125 286.42 -149.968 308.355C-145.281 326.415 -145.281 345.523 -149.968 363.583C-151.037 369.454 -153.309 374.991 -156.617 379.788C-159.925 384.584 -164.185 388.518 -169.084 391.299C-173.982 394.081 -179.395 395.639 -184.924 395.861C-190.453 396.082 -195.958 394.96 -201.033 392.577C-215.241 385.958 -228.218 376.602 -239.331 364.964C-252.236 351.454 -266.511 339.566 -281.885 329.526C-301.885 320.781 -319.758 312.037 -336.779 300.991V352.077H-332.524C-310.317 356.932 -289.118 366.134 -269.97 379.231C-257.204 388.435 -245.289 399.481 -232.097 407.765C-218.602 417.133 -203.017 422.381 -186.99 422.953V420.651Z" fill="#D7FC70" fill-opacity="0.22"/>
<path d="M-186.565 397.64C-190.669 398.057 -194.801 398.057 -198.905 397.64C-212.577 392.718 -224.973 384.359 -235.076 373.248C-256.47 350.363 -281.38 331.675 -308.694 318.02C-315.502 314.338 -322.737 310.196 -331.247 304.673C-332.381 304.426 -333.457 303.931 -334.408 303.219C-335.359 302.506 -336.166 301.592 -336.779 300.531L-336.779 235.178C-335.696 233.32 -334.242 231.748 -332.524 230.576C-315.077 219.07 -296.353 208.945 -280.183 200.201C-264.695 191.821 -250.37 181.131 -237.629 168.445C-227.008 157.803 -217.189 146.261 -208.267 133.928C-199.028 120.281 -192.772 104.545 -189.969 87.9046C-189.969 81.0012 -189.969 73.6375 -186.99 66.734C-184.011 59.8306 -184.011 46.4839 -181.884 36.819C-179.03 21.4551 -172.748 7.07787 -163.586 -5.06194C-156.953 -12.6287 -149.359 -19.1371 -141.032 -24.3916L-136.351 -27.6132C-128.81 -32.0269 -121.806 -37.4377 -115.5 -43.7213C-107.169 -52.1728 -101.261 -63.0361 -98.4784 -75.017C-98.136 -77.1421 -97.4133 -79.1745 -96.3507 -81H-60.6056C-59.9602 -80.621 -59.398 -80.0958 -58.9574 -79.4604C-58.5168 -78.825 -58.2081 -78.0943 -58.0523 -77.3182C-56.8847 -74.5535 -55.0364 -72.1896 -52.7097 -70.4849C-50.383 -68.7803 -47.6676 -67.8007 -44.8607 -67.6533L-38.9031 -66.7329C-34.7327 -68.439 -30.9568 -71.1092 -27.8391 -74.5568C-26.0686 -76.9253 -24.0717 -79.0851 -21.8816 -81H20.6721C20.6721 -81 20.6721 -81 20.6721 -77.7784C16.9907 -70.9136 12.7162 -64.4414 7.90601 -58.4487C-6.27829 -39.5802 -23.7786 -23.938 -43.584 -12.4256H-46.5628L-58.0523 -6.44263C-68.0788 -1.24512 -76.8866 6.34117 -83.8144 15.7468C-90.7422 25.1525 -95.6102 36.1331 -98.0528 47.8646V51.0862C-101.883 62.1317 -105.712 73.6375 -110.393 84.683C-116.182 98.9368 -123.312 112.508 -131.67 125.183C-142.291 143.703 -148.707 164.678 -150.394 186.394C-150.394 202.042 -153.798 220.451 -154.649 238.86C-156.004 261.865 -154.284 284.961 -149.543 307.435C-146.933 318.252 -145.646 329.392 -145.713 340.571C-145.138 357.315 -150.289 373.7 -160.181 386.594C-163.358 390.566 -167.274 393.767 -171.674 395.988C-176.074 398.209 -180.859 399.399 -185.714 399.481L-186.565 397.64ZM-185.714 399.481C-180.576 399.486 -175.502 398.248 -170.864 395.86C-166.225 393.471 -162.139 389.991 -158.905 385.674C-148.963 372.782 -143.673 356.434 -144.011 339.651C-143.786 328.311 -145.075 316.995 -147.841 306.054C-152.735 284.852 -154.742 262.991 -153.798 241.161C-153.798 223.212 -151.245 205.724 -149.543 188.235C-148.123 166.174 -141.692 144.833 -130.819 126.104C-122.818 113.186 -115.707 99.6495 -109.542 85.6035C-104.861 73.6375 -100.606 61.2113 -96.3507 48.785C-93.4158 38.0495 -88.4089 28.1092 -81.6604 19.6206C-74.912 11.1319 -66.5754 4.28792 -57.2012 -0.459641C-52.3593 -2.53754 -47.6657 -4.99877 -43.1585 -7.82333C-23.1154 -19.3456 -5.33774 -34.9773 9.18259 -53.8464C14.1522 -59.8691 18.438 -66.5129 21.9487 -73.6363C21.9487 -73.6363 24.9275 -78.2386 23.2253 -81H-22.3072L-28.6902 -75.9375C-31.6004 -72.763 -35.0744 -70.2582 -38.9031 -68.5738H-43.1585C-45.8401 -68.1989 -48.5624 -68.7546 -50.9332 -70.1607C-53.304 -71.5668 -55.2008 -73.7507 -56.3502 -76.3977C-57.262 -78.2456 -58.5765 -79.8253 -60.18 -81L-96.7762 -81C-98.3781 -79.6318 -99.4422 -77.6588 -99.755 -75.4772C-102.685 -63.8274 -108.583 -53.3024 -116.776 -45.102C-124.227 -38.041 -132.359 -31.869 -141.032 -26.6928C-149.39 -21.3023 -156.986 -14.6371 -163.586 -6.90287C-172.905 5.36292 -179.33 19.8931 -182.309 35.4383C-186.139 52.0067 -187.416 69.9557 -190.394 86.9842C-192.967 103.618 -199.087 119.375 -208.267 133.007C-217.162 145.365 -226.982 156.91 -237.629 167.525C-250.305 180.174 -264.646 190.721 -280.183 198.82C-297.63 208.485 -315.502 218.61 -332.524 229.656C-334.338 230.898 -335.809 232.647 -336.779 234.718V300.991C-335.81 303.216 -334.155 305.006 -332.098 306.054C-324.814 311.221 -317.125 315.687 -309.119 319.401C-282.269 332.905 -257.565 350.924 -235.927 372.787C-225.859 384.171 -213.258 392.57 -199.331 397.18C-195.1 397.874 -190.796 397.874 -186.565 397.18L-185.714 399.481Z" fill="#D7FC70" fill-opacity="0.22"/>
<path d="M275.565 360.358C264.222 359.31 253.417 354.668 244.501 347.011C232.161 337.346 220.246 326.301 209.182 315.716L204.075 310.653C187.361 295.045 174.37 275.312 166.202 253.124C160.518 238.46 152.608 224.927 142.798 213.084C132.669 201.466 120.123 192.63 106.201 187.311C101.521 187.311 96.4141 183.629 91.7332 181.788L72.1585 174.425C65.6852 172.397 59.8466 168.496 55.2722 163.143C50.6979 157.79 47.5613 151.188 46.2007 144.05C44.5797 134.09 46.2359 123.831 50.8816 115.055C59.9097 92.7649 71.1837 71.6198 84.499 52.0034C89.1317 45.0459 95.4692 39.6263 102.797 36.3556C105.196 35.9779 107.633 35.9779 110.031 36.3556C116.359 36.8103 122.358 39.5679 127.053 44.1795C132.485 49.3004 137.087 55.3669 140.67 62.1285C152.853 82.4146 168.441 100.054 186.628 114.135C204.05 127.86 220.287 143.264 235.139 160.158L254.714 183.629C266.929 197.731 281.331 209.413 297.268 218.147L311.311 226.891C316.394 230.638 320.715 235.469 324.008 241.089C327.301 246.708 329.497 252.997 330.46 259.567C333.434 274.313 333.01 289.623 329.225 304.149C325.441 318.675 318.412 331.972 308.757 342.869C304.896 347.889 300.091 351.962 294.661 354.819C289.232 357.676 283.303 359.25 277.268 359.438L275.565 360.358ZM277.268 359.438C283.587 359.337 289.807 357.715 295.475 354.69C301.142 351.665 306.116 347.313 310.034 341.949C319.967 330.954 327.196 317.445 331.061 302.653C334.926 287.861 335.305 272.257 332.162 257.266C331.041 250.517 328.697 244.073 325.264 238.308C321.832 232.542 317.379 227.567 312.162 223.669L298.119 214.925C282.379 206.042 268.021 194.551 255.565 180.868L235.99 157.396C221.151 139.488 204.764 123.152 187.054 108.612C169.269 94.3639 153.87 76.9305 141.521 57.0659C137.804 50.004 133.063 43.6332 127.478 38.1965C124.203 34.3571 119.926 31.685 115.214 30.5343C110.502 29.3837 105.578 29.8087 101.095 31.7533C93.5032 35.2006 86.9991 40.956 82.3714 48.3216C69.342 68.0552 58.2197 89.1831 49.1794 111.373C44.6596 121.71 43.6065 133.425 46.2007 144.51C47.5514 151.757 50.6709 158.481 55.2354 163.984C59.7999 169.487 65.6431 173.569 72.1585 175.805C83.648 181.328 95.1375 184.09 106.627 188.692C120.272 194.077 132.528 202.914 142.372 214.465C152.069 225.967 159.844 239.204 165.351 253.584C173.794 275.992 186.899 295.993 203.65 312.034C217.016 325.233 231.237 337.383 246.203 348.392C255.261 356.462 266.414 361.286 278.119 362.199L277.268 359.438Z" fill="#D7FC70" fill-opacity="0.22"/>
<path d="M-180.596 609.346C-186.998 584.874 -198.333 562.241 -213.788 543.073C-220.611 533.702 -226.865 523.863 -232.512 513.618C-235.643 507.327 -237.664 500.46 -238.469 493.368C-238.735 489.594 -237.89 485.825 -236.055 482.602C-234.221 479.378 -231.491 476.864 -228.257 475.419C-221.077 472.226 -213.454 470.359 -205.703 469.896H-189.107C-176.766 469.415 -164.503 467.564 -152.511 464.374C-141.63 460.686 -131.811 454.028 -124 445.044C-119.755 438.997 -116.317 432.336 -113.787 425.254C-105.906 406.273 -99.6389 386.555 -95.0633 366.344V360.361C-91.366 346.675 -88.8026 332.659 -87.4037 318.481C-85.9311 308.109 -85.9311 297.556 -87.4037 287.185L-89.9569 276.139L-95.0633 251.747C-98.2683 235.091 -96.7861 217.779 -90.808 202.042C-88.1169 194.269 -83.532 187.427 -77.539 182.242C-71.546 177.056 -64.3679 173.721 -56.765 172.587C-48.3525 173.316 -40.5493 177.618 -35.0626 184.553L-19.7432 202.502L-13.3602 210.787C-2.24005 223.511 10.6892 234.232 24.9382 242.542L33.449 247.145L56.8535 261.872C63.3825 266.272 69.1443 271.88 73.875 278.44C80.203 287.706 83.088 299.202 81.9603 310.657C80.9837 325.128 77.6711 339.302 72.1729 352.538C69.8927 360.209 65.9068 367.157 60.565 372.774C55.2231 378.391 48.6885 382.505 41.5342 384.754C22.594 389.835 4.30119 397.408 -12.9346 407.305C-25.8733 415.612 -37.9931 425.327 -49.1053 436.299C-69.4185 458.783 -86.3605 484.56 -99.3187 512.698C-108.255 529.726 -116.766 547.215 -124.425 564.704C-130.278 578.442 -134.84 592.781 -138.043 607.505H-180.596V609.346ZM-180.596 607.505H-136.766C-133.917 593.089 -129.637 579.047 -124 565.624C-116.34 547.675 -108.255 530.647 -99.3187 513.618C-85.7724 485.933 -68.4104 460.638 -47.8287 438.601C-36.8552 427.782 -24.8764 418.219 -12.0835 410.066C4.9776 399.999 23.1317 392.269 41.9597 387.055C49.3627 384.887 56.153 380.767 61.7228 375.064C67.2925 369.362 71.4679 362.254 73.875 354.378C79.2363 340.77 82.5409 326.319 83.6624 311.577C84.7504 299.694 81.8835 287.782 75.5772 277.98C70.5659 271.238 64.5204 265.478 57.7046 260.952C47.4917 254.048 36.4277 248.065 25.7893 241.622C11.6731 233.491 -1.11969 222.92 -12.0835 210.326L-33.7859 184.093C-39.6788 176.903 -47.9109 172.452 -56.765 171.667C-64.8187 172.595 -72.4603 175.989 -78.7921 181.451C-85.1239 186.914 -89.8829 194.216 -92.5101 202.502C-98.2944 218.611 -99.7691 236.155 -96.7655 253.128C-96.7655 264.634 -91.659 276.6 -89.1058 288.566C-87.6111 298.626 -87.6111 308.88 -89.1058 318.941C-90.4462 333.093 -92.8659 347.101 -96.34 360.822C-100.987 382.804 -107.248 404.349 -115.064 425.254C-118.037 432.079 -122.067 438.305 -126.979 443.663C-134.292 451.135 -143.214 456.513 -152.936 459.311C-170.317 463.195 -187.967 465.504 -205.703 466.214C-213.622 466.781 -221.393 468.805 -228.682 472.197C-232.374 473.621 -235.516 476.347 -237.6 479.937C-239.685 483.528 -240.59 487.772 -240.172 491.987C-239.29 499.207 -237.275 506.211 -234.214 512.698C-228.569 523.053 -222.165 532.903 -215.065 542.152C-199.672 561.716 -188.352 584.632 -181.873 609.346L-180.596 607.505Z" fill="#D7FC70" fill-opacity="0.22"/>
<path d="M286.218 92.5079H284.09C264.476 90.1293 246.107 80.9228 231.749 66.2748C214.175 48.0419 202.531 24.146 198.557 -1.83934L195.579 -13.8053C190.472 -34.976 185.366 -57.067 181.961 -80.999L330.474 -80.999C328.918 -76.6322 326.92 -72.4648 324.517 -68.5728L321.963 -64.8909C313.47 -49.4428 308.239 -32.1553 306.644 -14.2656C304.71 -2.41854 303.855 9.60494 304.091 21.6324V40.0417C304.091 44.644 304.091 49.7065 304.091 54.769C305.001 60.1293 304.784 65.6421 303.459 70.8999C302.133 76.1576 299.731 81.0258 296.431 85.1443C294.825 86.9171 292.903 88.3202 290.783 89.2693C288.662 90.2184 286.385 90.6938 284.09 90.667L286.218 92.5079ZM284.09 90.667C286.957 91.8179 290.037 92.2096 293.072 91.8092C296.108 91.4089 299.011 90.2282 301.537 88.3659C304.66 83.9756 306.85 78.8959 307.953 73.4872C309.056 68.0786 309.045 62.4736 307.921 57.0702C307.921 46.0247 307.921 34.9791 305.793 23.9336C305.569 12.0591 306.424 0.189461 308.346 -11.5042C309.93 -29.3317 315.008 -46.5898 323.24 -62.1296C327.399 -67.8239 330.702 -74.1919 333.027 -80.999L179.408 -80.999C183.678 -54.9281 189.218 -29.1192 196.004 -3.68027C200.18 22.5962 211.95 46.765 229.622 65.3543C244.465 80.1107 263.222 89.4484 283.239 92.0477L284.09 90.667Z" fill="#D7FC70" fill-opacity="0.22"/>
<path d="M395.575 522.367H393.022C391.849 522.441 390.676 522.238 389.583 521.772C388.491 521.306 387.505 520.588 386.695 519.668C385.885 518.748 385.27 517.648 384.893 516.445C384.516 515.242 384.386 513.965 384.511 512.702C384.429 505.516 385.435 498.365 387.49 491.531C387.629 489.386 387.629 487.233 387.49 485.088C387.49 480.486 389.618 475.883 390.469 471.281C391.32 466.679 394.724 453.792 396.426 444.588C398.006 433.313 398.859 421.933 398.98 410.531V400.866C398.98 383.377 398.98 365.428 398.98 347.939C398.98 340.575 398.98 332.752 398.98 325.388V302.376C399.067 293.359 400.211 284.39 402.384 275.683C403.38 271.996 405.369 268.713 408.098 266.254C410.826 263.795 414.17 262.271 417.703 261.876C421.01 262.162 424.213 263.264 427.065 265.098C431.329 268.687 434.815 273.243 437.278 278.444C441.191 287.85 443.221 298.045 443.235 308.359C443.463 312.958 443.463 317.567 443.235 322.166V331.371C443.978 347.808 447.288 363.991 453.023 379.235C459.349 399.503 469.008 418.368 481.534 434.923L496.853 456.093C498.689 458.825 500.258 461.756 501.534 464.838C504.939 473.582 503.662 477.724 495.577 482.787C492.719 484.606 489.519 485.707 486.215 486.008C467.939 491.061 450.021 497.521 432.597 505.338C420.426 511.49 407.285 515.082 393.873 515.923L395.575 522.367ZM393.873 515.923C407.454 514.973 420.743 511.224 433.023 504.878C450.399 496.925 468.327 490.462 486.64 485.548C490.191 485.117 493.646 484.027 496.853 482.326C498.656 481.58 500.279 480.401 501.599 478.878C502.92 477.355 503.904 475.528 504.477 473.534C505.051 471.541 505.199 469.432 504.91 467.368C504.622 465.304 503.904 463.337 502.811 461.616C501.676 458.316 500.099 455.215 498.13 452.411L481.108 429.4C469.838 414.35 460.926 397.404 454.725 379.235C450.16 362.675 448.147 345.416 448.767 328.149C448.767 318.484 448.767 311.581 448.767 305.138C448.783 294.474 446.603 283.94 442.384 274.302C440.063 268.74 436.386 263.967 431.746 260.495C428.727 258.26 425.189 256.984 421.533 256.813C417.629 257.093 413.91 258.719 410.923 261.453C407.937 264.186 405.838 267.883 404.937 272.001C402.041 281.344 400.603 291.142 400.682 300.996C400.682 315.723 400.682 329.99 400.682 344.718C400.682 359.445 400.682 386.598 400.682 407.309C400.695 418.565 399.841 429.803 398.128 440.906C396.001 454.713 392.171 467.599 389.192 481.406C386.332 490.455 384.753 499.92 384.511 509.48C384.511 516.844 388.341 520.986 394.724 520.986L393.873 515.923Z" fill="#D7FC70" fill-opacity="0.22"/>
<path d="M-67.8398 413.285C-73.7973 413.285 -76.7761 408.683 -77.2016 399.939C-77.4098 389.842 -76.2631 379.765 -73.7973 370.024C-73.7973 360.819 -69.5419 351.154 -66.9887 341.95C-64.4355 332.745 -62.3078 325.381 -60.6056 317.097C-57.1773 298.41 -57.1773 279.176 -60.6056 260.489C-60.9767 254.82 -60.9767 249.129 -60.6056 243.46C-60.6056 234.716 -56.7758 229.653 -50.8183 229.653C-48.7078 229.239 -46.5456 229.239 -44.4352 229.653C-39.6531 233.14 -35.1029 236.985 -30.818 241.159C-19.754 249.443 -8.26447 256.807 3.22504 263.711L9.18259 267.392C18.7436 272.472 27.5039 279.15 35.1404 287.182C38.5267 290.222 41.2678 294.016 43.177 298.304C45.0862 302.593 46.1187 307.276 46.2044 312.035C46.3452 317.82 45.3995 323.577 43.4247 328.956C41.4499 334.335 38.4869 339.225 34.7148 343.33C25.5265 352.945 15.055 361.012 3.6506 367.262C-10.3922 377.848 -25.7115 388.433 -38.9032 399.018C-45.8819 404.099 -53.47 408.125 -61.4567 410.984H-66.1376L-67.8398 413.285ZM-66.1376 410.984H-61.0312C-53.3151 408.555 -45.8886 405.157 -38.9032 400.859L5.77829 368.643C15.7812 361.982 24.9367 353.937 33.0127 344.711C37.1618 340.433 40.469 335.293 42.7359 329.599C45.0027 323.905 46.1825 317.774 46.2044 311.574C45.9929 302.378 42.4832 293.631 36.417 287.182C28.7896 278.443 19.874 271.133 10.0336 265.551C-3.58357 257.267 -17.2008 249.443 -29.9669 239.779C-34.1095 236.437 -38.525 233.51 -43.1586 231.034C-45.5435 230.488 -48.0078 230.488 -50.3927 231.034C-57.2013 231.034 -61.4567 236.557 -61.8822 246.682C-62.3032 252.349 -62.3032 258.043 -61.8822 263.711C-58.477 282.245 -58.477 301.324 -61.8822 319.859C-65.7121 337.808 -71.6696 354.836 -75.0739 372.785C-77.4641 382.699 -78.6091 392.916 -78.4782 403.16C-78.4782 413.285 -74.2228 418.348 -67.4142 418.348L-66.1376 410.984Z" fill="#D7FC70" fill-opacity="0.22"/>
<path d="M247.912 20.7085H244.933C242.444 18.7565 240.414 16.1975 239.01 13.239C237.605 10.2805 236.864 7.00573 236.848 3.68001C236.709 1.11419 237.094 -1.45328 237.977 -3.83968C238.859 -6.22608 240.218 -8.37275 241.955 -10.1269C243.459 -10.768 245.131 -10.768 246.635 -10.1269C248.629 -9.78662 250.505 -8.88432 252.073 -7.51083C253.642 -6.13733 254.849 -4.34112 255.572 -2.30299C257.335 1.58393 257.954 5.96212 257.345 10.2413C256.737 14.5205 254.929 18.495 252.167 21.629C250.797 22.1956 249.282 22.1956 247.912 21.629V20.7085ZM247.912 21.629C248.986 21.5184 250.029 21.1764 250.979 20.6231C251.929 20.0698 252.767 19.3165 253.444 18.4074C256.583 15.357 258.793 11.3481 259.78 6.91075C260.768 2.47336 260.488 -2.18374 258.976 -6.44507C258.124 -8.65273 256.787 -10.6027 255.082 -12.1263C253.377 -13.6499 251.354 -14.7012 249.189 -15.1895C246.896 -15.1285 244.673 -14.327 242.806 -12.8883C240.88 -10.4926 239.434 -7.69193 238.557 -4.6624C237.681 -1.63288 237.393 1.55999 237.713 4.71543C238.033 7.87088 238.953 10.9207 240.415 13.673C241.877 16.4253 243.85 18.8207 246.21 20.7085C247.466 21.0593 248.784 21.0593 250.04 20.7085L247.912 21.629Z" fill="#D7FC70" fill-opacity="0.22"/>
<path d="M268.758 318.021C261.884 317.403 255.211 315.206 249.184 311.577C236.167 303.796 224.15 294.203 213.439 283.043C202.697 271.103 194.428 256.826 189.183 241.162C180.98 216.217 169.048 192.895 153.863 172.128C150.608 167.439 147.893 162.338 145.778 156.94C144.652 154.927 144.056 152.619 144.056 150.267C144.056 147.914 144.652 145.606 145.778 143.593C146.908 141.84 148.45 140.446 150.246 139.556C152.042 138.665 154.026 138.311 155.991 138.531C164.912 139.423 173.514 142.576 181.098 147.735C194.345 156.98 206.248 168.303 216.417 181.332C230.586 200.549 245.641 218.982 261.524 236.56L269.184 244.844C274.178 249.556 278.87 254.63 283.227 260.032C287.809 265.308 291.291 271.585 293.44 278.441C294.607 282.475 294.983 286.728 294.543 290.928C294.103 295.129 292.858 299.183 290.886 302.833C289.075 306.321 286.636 309.381 283.712 311.832C280.789 314.282 277.44 316.074 273.865 317.1H268.758V318.021ZM268.758 317.1H274.716C282.493 314.642 289.053 308.952 292.961 301.276C296.869 293.599 297.806 284.562 295.567 276.14C293.38 268.928 289.748 262.328 284.929 256.81C278.12 248.526 270.461 241.162 263.227 233.338C247.056 215.849 232.588 197.44 218.12 178.571C208.279 164.817 196.333 152.986 182.8 143.593C175.21 138.027 166.41 134.696 157.268 133.928C155.03 133.7 152.778 134.136 150.753 135.19C148.728 136.245 147.008 137.877 145.778 139.911C144.405 142.166 143.674 144.806 143.674 147.505C143.674 150.204 144.405 152.845 145.778 155.099C147.796 160.549 150.518 165.663 153.863 170.287C168.52 191.803 179.871 215.736 187.481 241.162C192.16 258.229 200.301 273.952 211.311 287.185C222.023 298.546 234.207 308.158 247.482 315.72C253.747 319.595 260.717 321.95 267.907 322.623L268.758 317.1Z" fill="#D7FC70" fill-opacity="0.22"/>
</g>
</svg>
